<svg width="91" height="78" viewBox="0 0 91 78" fill="none" xmlns="http://www.w3.org/2000/svg">
<path d="M61.3235 29.979L69.4468 25.8741L70.6249 23.4744C62.0894 10.0722 43.437 5.70558 29.6976 13.758C25.8448 16.0519 22.6115 19.1688 20.2418 22.8737L22.5964 23.2487L35.8344 25.0672L37.0932 24.4124C40.6496 22.3853 44.9188 21.756 49.0305 22.6525C53.1422 23.5491 56.7868 25.9041 59.2215 29.2375L61.3235 29.979Z" fill="#EA4335"/>
<path d="M75.2704 39.191C75.3417 33.6743 73.7281 28.2114 70.6276 23.4729L59.2254 29.2341C60.6442 31.2232 61.5818 33.482 61.9675 35.8402C62.3533 38.1983 62.177 40.5942 61.452 42.8471L61.0035 44.3415C63.0864 44.9665 64.8482 46.3514 65.9015 48.1913C66.9548 50.0313 67.2132 52.1758 66.6199 54.1529C66.0266 56.1301 64.6302 57.778 62.7379 58.7341C60.8456 59.6902 58.6124 59.8763 56.5296 59.2513L40.7143 54.5056L38.6818 55.6406L35.9831 64.6341L37.1115 66.5122L52.9274 71.2581C57.3199 72.6243 62.015 72.6103 66.316 71.2181C70.617 69.8258 74.2946 67.1296 76.8031 63.5295C79.3116 59.9293 80.5173 55.6172 80.2413 51.2329C79.9653 46.8486 78.2218 42.6256 75.2704 39.191Z" fill="#4285F4"/>
<path d="M21.3163 61.7721L37.115 66.5128L40.7168 54.5094L24.9181 49.7687C23.8005 49.4325 22.7648 48.8717 21.8814 48.1244L19.4448 48.1034L11.2768 52.1943L10.1096 54.0702C12.9006 57.7173 16.8368 60.4226 21.3163 61.7721Z" fill="#34A853"/>
<path d="M32.998 22.8345C28.7107 21.575 24.1578 21.6182 19.9752 22.958C15.7925 24.2979 12.189 26.8675 9.66777 30.3081C7.14658 33.7487 5.83361 37.8884 5.91224 42.1491C5.99087 46.4099 7.45716 50.5789 10.1064 54.0739L21.8797 48.1252C20.8651 47.2765 20.0738 46.2106 19.5737 45.019C19.0735 43.8273 18.8793 42.5455 19.0079 41.2836C19.1365 40.0216 19.584 38.8171 20.312 37.7735C21.0399 36.7299 22.0266 35.8783 23.1874 35.2918C24.3482 34.7053 25.6484 34.4014 26.9765 34.4061C28.3046 34.4109 29.6208 34.7242 30.8124 35.3191C32.0039 35.9141 33.0352 36.7729 33.8176 37.8219C34.6001 38.8709 35.1104 40.0788 35.3047 41.3419L47.078 35.3932C45.8709 32.4293 43.9718 29.7534 41.5293 27.5748C39.0867 25.3961 36.1668 23.7737 32.998 22.8345Z" fill="#FBBC05"/>
</svg>
