<svg width="150" height="154" viewBox="0 0 150 154" fill="none" xmlns="http://www.w3.org/2000/svg">
<path d="M65.8877 35.8379L73.1853 52.8098L109.351 57.3592L102.057 40.3956L65.8877 35.8379ZM15.4382 77.6399L22.7269 94.591L40.8069 96.8595L33.5165 79.9042L15.4382 77.6399ZM62.3729 67.5112L51.6106 82.1715L73.4873 133.05L91.5691 135.322L76.9793 101.391L95.0653 103.662L87.7766 86.7109L69.6784 84.4453L62.3729 67.5112Z" fill="#E55B2D"/>
<path d="M65.8895 35.8379L33.5182 79.9042L40.8087 96.8595L62.3897 67.4901L69.6802 84.4453L80.4757 69.7609L65.8895 35.8379ZM112.843 25.6964L102.059 40.3956L109.347 57.3467L120.137 42.6599L112.843 25.6964ZM98.5435 72.0347L87.7539 86.7215L95.0479 103.685L105.832 88.9858L98.5435 72.0347ZM95.0479 103.685L76.9688 101.396L91.5533 135.315L102.347 120.627L95.0479 103.685Z" fill="#ED8E24"/>
<path d="M58.5947 18.8769L15.4375 77.6383L33.5211 79.9151L65.8923 35.8488L102.056 40.3941L112.846 25.7073L58.5947 18.8769ZM80.4732 69.7594L69.6777 84.4438L87.7636 86.7146L98.541 72.0331L80.4732 69.7594Z" fill="#F8BF3C"/>
</svg>
