<svg width="854" height="428" viewBox="0 0 854 428" fill="none" xmlns="http://www.w3.org/2000/svg">
<g filter="url(#filter0_dddd_276_5858)">
<mask id="path-1-inside-1_276_5858" fill="white">
<path fill-rule="evenodd" clip-rule="evenodd" d="M339.093 258.383C323.647 213.914 279.826 182.285 228.782 183.229C171.967 184.281 125.587 225.33 117.784 278.103C116.325 278.085 114.859 278.089 113.387 278.116C48.9522 279.309 -1.99462 323.229 -0.999604 376.998C-3.49957 413.998 0.50011 423.499 116.99 472.831C145.745 472.299 171.91 463.131 191.982 448.362C205.836 451.563 221.625 452.767 238.641 452.452C278.288 456.118 303.602 455.131 319.7 450.175C329.492 453.889 339.907 455.497 346.71 455.371C348.12 455.345 349.67 455.251 351.325 455.086C376.903 467.763 413.062 475.308 453.01 474.569C529.705 473.149 591.319 441.73 590.628 404.392C590.129 377.446 557.319 354.781 510.267 344.785C510.351 342.871 510.376 340.943 510.34 339.004C509.317 283.717 459.402 239.807 398.852 240.927C376.678 241.337 356.153 247.73 339.093 258.383Z"/>
</mask>
<path fill-rule="evenodd" clip-rule="evenodd" d="M339.093 258.383C323.647 213.914 279.826 182.285 228.782 183.229C171.967 184.281 125.587 225.33 117.784 278.103C116.325 278.085 114.859 278.089 113.387 278.116C48.9522 279.309 -1.99462 323.229 -0.999604 376.998C-3.49957 413.998 0.50011 423.499 116.99 472.831C145.745 472.299 171.91 463.131 191.982 448.362C205.836 451.563 221.625 452.767 238.641 452.452C278.288 456.118 303.602 455.131 319.7 450.175C329.492 453.889 339.907 455.497 346.71 455.371C348.12 455.345 349.67 455.251 351.325 455.086C376.903 467.763 413.062 475.308 453.01 474.569C529.705 473.149 591.319 441.73 590.628 404.392C590.129 377.446 557.319 354.781 510.267 344.785C510.351 342.871 510.376 340.943 510.34 339.004C509.317 283.717 459.402 239.807 398.852 240.927C376.678 241.337 356.153 247.73 339.093 258.383Z" fill="#F1F3F4"/>
<path d="M339.093 258.383L336.26 259.367L337.493 262.919L340.682 260.927L339.093 258.383ZM117.784 278.103L117.747 281.102L120.369 281.135L120.752 278.542L117.784 278.103ZM-0.999604 376.998L1.99357 377.201L2.00227 377.072L1.99988 376.943L-0.999604 376.998ZM116.99 472.831L115.82 475.594L116.408 475.842L117.046 475.831L116.99 472.831ZM191.982 448.362L192.657 445.439L191.314 445.129L190.204 445.946L191.982 448.362ZM238.641 452.452L238.917 449.465L238.752 449.45L238.585 449.453L238.641 452.452ZM319.7 450.175L320.764 447.37L319.801 447.005L318.817 447.308L319.7 450.175ZM351.325 455.086L352.657 452.398L351.884 452.015L351.026 452.101L351.325 455.086ZM510.267 344.785L507.27 344.654L507.159 347.192L509.644 347.719L510.267 344.785ZM228.838 186.229C278.599 185.308 321.244 216.139 336.26 259.367L341.927 257.398C326.05 211.689 281.053 179.261 228.727 180.23L228.838 186.229ZM120.752 278.542C128.334 227.265 173.442 187.254 228.838 186.229L228.727 180.23C170.492 181.307 122.841 223.395 114.817 277.664L120.752 278.542ZM113.443 281.116C114.884 281.089 116.319 281.085 117.747 281.102L117.822 275.103C116.331 275.084 114.834 275.089 113.332 275.117L113.443 281.116ZM1.99988 376.943C1.04465 325.323 50.1238 282.287 113.443 281.116L113.332 275.117C47.7805 276.33 -5.03389 321.135 -3.99909 377.054L1.99988 376.943ZM118.16 470.069C89.0496 457.741 67.0321 447.928 50.4063 439.568C33.7532 431.194 22.675 424.357 15.3347 418.019C8.06911 411.746 4.55545 406.039 2.89755 399.866C1.19925 393.542 1.36679 386.477 1.99357 377.201L-3.99278 376.796C-4.61598 386.02 -4.88597 394.017 -2.89712 401.422C-0.867875 408.978 3.43029 415.668 11.4134 422.561C19.3218 429.389 30.9292 436.49 47.7108 444.929C64.5197 453.381 86.686 463.256 115.82 475.594L118.16 470.069ZM190.204 445.946C170.65 460.334 145.092 469.311 116.935 469.832L117.046 475.831C146.399 475.287 173.17 465.929 193.76 450.779L190.204 445.946ZM238.585 449.453C221.73 449.765 206.201 448.568 192.657 445.439L191.306 451.285C205.472 454.558 221.521 455.77 238.696 455.452L238.585 449.453ZM318.817 447.308C303.325 452.078 278.522 453.127 238.917 449.465L238.365 455.44C278.054 459.109 303.879 458.185 320.582 453.043L318.817 447.308ZM346.655 452.372C340.265 452.49 330.229 450.96 320.764 447.37L318.636 452.98C328.755 456.818 339.549 458.504 346.766 458.371L346.655 452.372ZM351.026 452.101C349.443 452.259 347.975 452.347 346.655 452.372L346.766 458.371C348.266 458.343 349.897 458.244 351.623 458.071L351.026 452.101ZM452.954 471.569C413.37 472.302 377.709 464.814 352.657 452.398L349.993 457.774C376.096 470.711 412.755 478.314 453.065 477.568L452.954 471.569ZM587.628 404.447C587.941 421.326 574.094 437.723 549.476 450.277C525.059 462.729 490.948 470.866 452.954 471.569L453.065 477.568C491.767 476.852 526.811 468.57 552.202 455.622C577.391 442.777 594.006 424.796 593.627 404.336L587.628 404.447ZM509.644 347.719C532.896 352.659 552.433 360.693 566.141 370.659C579.874 380.642 587.403 392.274 587.628 404.447L593.627 404.336C593.354 389.563 584.228 376.389 569.669 365.805C555.084 355.203 534.69 346.906 510.891 341.85L509.644 347.719ZM507.34 339.059C507.375 340.936 507.351 342.802 507.27 344.654L513.264 344.916C513.351 342.94 513.376 340.95 513.339 338.948L507.34 339.059ZM398.907 243.927C458.063 242.832 506.352 285.68 507.34 339.059L513.339 338.948C512.281 281.754 460.74 236.781 398.796 237.928L398.907 243.927ZM340.682 260.927C357.283 250.561 377.278 244.327 398.907 243.927L398.796 237.928C376.078 238.348 355.024 244.898 337.504 255.838L340.682 260.927Z" fill="black" mask="url(#path-1-inside-1_276_5858)"/>
</g>
<path d="M480.42 262.98L475.504 252.773L470.051 255.407L473.115 264.633L478.584 267.198L480.42 262.98Z" fill="#FFB6B6"/>
<path d="M441.622 233.774C442.06 233.964 443.391 234.727 445.029 234.47C446.146 234.294 446.897 233.722 447.145 233.544C450.225 231.329 459.606 229.434 466.632 231.511C468.223 231.982 469.19 232.507 469.955 233.296C471.039 234.414 471.218 235.549 472.082 238.357C472.554 239.893 473.151 241.392 473.637 242.924C476.484 251.894 478.352 253.158 477.299 255.365C476.131 257.813 472.406 259.246 470.621 258.327C469.89 257.95 469.781 257.332 469.134 255.936C467.236 251.842 465.775 251.982 464.485 248.902C462.979 245.306 464.146 243.146 462.866 242.611C461.678 242.116 460.446 243.878 456.896 245.567C455.272 246.34 454.225 246.593 451.01 247.434C438.49 250.709 438.156 251.125 435.931 250.969C434.957 250.901 428.047 250.416 426.777 247.014C424.79 241.69 437.676 232.066 441.622 233.774Z" fill="#2F2E41"/>
<path d="M477.426 263.888C478.083 263.836 478.852 263.776 479.308 263.191C479.617 262.795 479.736 262.218 479.578 261.737C479.395 261.182 478.906 260.951 478.955 260.881C479.03 260.773 480.219 261.23 481.376 262.129C481.594 262.299 482.579 263.081 483.62 264.649C484.454 265.906 484.235 266.026 484.774 266.771C486.429 269.056 488.955 268.558 489.626 270.401C489.886 271.113 489.793 271.966 489.364 272.536C488.501 273.679 486.434 273.47 485.31 273.343C482.601 273.036 480.868 271.944 479.005 270.949C472.669 267.566 468.516 267.271 468.563 265.599C468.572 265.283 468.719 265.36 470.006 263.455C471.277 261.574 471.469 261.004 471.966 260.988C472.715 260.964 472.741 262.241 474.255 263.19C475.596 264.031 477 263.921 477.426 263.888Z" fill="#2F2E41"/>
<path d="M458.21 283.124L460.111 272.027L454.058 271.266L451.199 280.552L454.224 285.624L458.21 283.124Z" fill="#FFB6B6"/>
<path d="M442.524 238.036C442.775 238.429 443.431 239.779 444.936 240.449C445.964 240.906 446.919 240.838 447.229 240.824C451.072 240.652 459.943 244.143 464.541 249.65C465.583 250.898 466.076 251.854 466.248 252.919C466.491 254.429 465.976 255.465 465.048 258.254C464.541 259.78 464.158 261.342 463.664 262.872C460.775 271.829 461.582 273.882 459.42 275.14C457.022 276.537 453.102 275.713 452.162 273.99C451.777 273.284 452.049 272.714 452.33 271.21C453.153 266.799 451.862 266.127 452.596 262.882C453.453 259.095 455.682 257.938 454.934 256.805C454.242 255.754 452.192 256.547 448.266 256.031C446.47 255.795 445.457 255.439 442.305 254.402C430.029 250.36 429.51 250.524 427.76 249.195C426.994 248.614 421.379 244.437 422.499 240.986C427.636 225.161 440.257 234.495 442.524 238.036Z" fill="#2F2E41"/>
<path d="M454.543 282.264C455.117 282.576 455.788 282.941 456.508 282.703C456.995 282.542 457.431 282.129 457.581 281.645C457.754 281.088 457.485 280.633 457.567 280.601C457.691 280.553 458.408 281.571 458.84 282.94C458.921 283.198 459.279 284.376 459.223 286.235C459.178 287.724 458.926 287.706 458.937 288.613C458.97 291.396 461.352 292.346 460.829 294.234C460.628 294.962 460.052 295.618 459.364 295.858C457.982 296.339 456.394 295.051 455.538 294.339C453.476 292.625 452.68 290.787 451.72 288.959C448.456 282.743 445.192 280.259 446.208 278.901C446.401 278.644 446.477 278.787 448.657 277.905C450.808 277.035 451.3 276.666 451.721 276.921C452.354 277.305 451.629 278.376 452.326 279.977C452.945 281.397 454.17 282.062 454.543 282.264Z" fill="#2F2E41"/>
<path d="M436.864 185.251L445.307 184.672L447.921 188.726L455.761 190.85L452.846 210.445L455.011 231.302C455.011 231.302 444.704 238.15 443.9 241.239C443.096 244.328 423.395 238.15 423.395 238.15L430.129 218.168L429.526 202.53L427.717 193.456L435.959 189.788L436.864 185.251Z" fill="#3F3D56"/>
<path d="M433.036 191.041C433.036 191.041 426.307 190.945 425.399 193.648C424.492 196.351 421.476 215.078 421.476 215.078L419.164 223.283L429.517 218.36L427.306 215.083L434.543 201.756L433.036 191.041Z" fill="#3F3D56"/>
<path d="M437.16 221.06C438.273 221.061 439.307 220.446 439.739 219.461C440.066 218.717 440.036 218.003 439.791 217.391C439.87 217.359 439.948 217.327 440.028 217.299C439.91 217.253 439.795 217.201 439.68 217.148C439.279 216.381 438.511 215.825 437.595 215.69C436.462 214.523 435.765 212.961 435.758 211.241C435.743 207.697 438.737 204.737 442.426 204.652C442.455 204.651 442.484 204.651 442.513 204.651C444.165 204.632 445.664 205.52 446.501 206.888C446.989 207.686 447.892 208.222 448.926 208.222C449.717 208.222 450.431 207.908 450.942 207.402C452.054 206.301 453.447 205.481 455.023 205.229C456.058 205.064 457.129 205.002 458.225 205.054C465.728 205.413 472.183 211.798 472.343 219.011C472.521 227.044 465.794 233.609 457.47 233.609C453.138 233.609 449.241 231.831 446.523 228.993C445.317 227.733 443.626 227.028 441.843 227.045C441.825 227.045 441.807 227.045 441.789 227.045C438.902 227.045 436.562 224.798 436.562 222.026C436.562 221.872 436.57 221.72 436.585 221.57C436.613 221.29 436.867 221.06 437.16 221.06Z" fill="#6C63FF"/>
<path d="M461.888 216.814L411.83 207.74L411.629 211.215L461.285 222.606L461.888 216.814Z" fill="#6C63FF"/>
<path d="M412.434 208.321L411.831 207.741C411.831 207.741 409.218 206.583 409.218 206.39C409.218 206.269 405.359 205.014 402.471 204.092C400.859 203.576 399.156 204.596 398.926 206.213L398.564 208.761C398.348 210.284 399.545 211.656 401.145 211.717L408.213 211.989L411.63 211.217L412.434 208.321Z" fill="#6C63FF"/>
<path d="M461.788 217.876L461.908 217.395L411.818 208.199L411.73 208.803L461.788 217.876Z" fill="#3F3D56"/>
<path d="M461.674 218.791L461.788 218.264L411.763 209.152L411.73 209.769L461.674 218.791Z" fill="#3F3D56"/>
<path d="M461.561 219.884L461.59 219.034L411.727 209.844L411.733 210.347L461.561 219.884Z" fill="#3F3D56"/>
<path d="M461.422 221.155L461.383 220.386L411.648 210.537L411.605 210.726L461.422 221.155Z" fill="#3F3D56"/>
<path d="M461.427 221.926L461.388 221.351L411.728 210.855L411.684 211.044L461.427 221.926Z" fill="#3F3D56"/>
<path d="M432.661 189.811L435.151 188.486L436.232 209.672L435.855 212.278C435.855 212.278 429.567 195.627 432.661 189.811Z" fill="#3F3D56"/>
<path d="M441.838 183.222C445.279 183.222 448.07 180.542 448.07 177.237C448.07 173.931 445.279 171.252 441.838 171.252C438.396 171.252 435.605 173.931 435.605 177.237C435.605 180.542 438.396 183.222 441.838 183.222Z" fill="#FFB6B6"/>
<path d="M435.853 180.809L437.343 181.951L435.652 175.789C435.652 175.789 440.376 175.693 440.778 173.183C440.778 173.183 444.497 173.086 445.502 173.086C446.508 173.086 446.961 179.474 446.961 179.474C446.961 179.474 448.92 174.245 446.91 171.542C444.899 168.839 445.603 170.48 445.201 169.515C444.799 168.549 440.677 167.662 438.064 168.646C435.451 169.63 435.35 171.033 434.546 171.046C433.742 171.059 430.927 174.92 433.541 178.009C436.154 181.098 435.853 180.809 435.853 180.809Z" fill="#2F2E41"/>
<path d="M455.549 220.083C456.288 219.517 456.832 218.838 457.139 218.166L464.531 213.201L461.968 209.893L454.745 215.285C453.996 215.424 453.185 215.783 452.446 216.349C450.759 217.642 450.086 219.526 450.942 220.557C451.799 221.588 453.862 221.376 455.549 220.083Z" fill="#FFB6B6"/>
<path d="M427.235 212.531C426.686 213.27 426.358 214.067 426.255 214.794L420.57 221.52L423.982 224.024L429.381 216.931C430.063 216.601 430.739 216.041 431.287 215.302C432.539 213.613 432.647 211.624 431.528 210.859C430.409 210.093 428.487 210.842 427.235 212.531Z" fill="#FFB6B6"/>
<path d="M452.543 192.104C452.543 192.104 454.352 189.208 456.162 190.946C457.593 192.321 465.445 201.07 468.66 204.662C469.546 205.652 470.033 206.914 470.033 208.22C470.033 210.241 468.872 212.096 467.013 213.044L456.966 218.167L454.151 214.113L462.796 208.128L449.527 201.178L452.543 192.104Z" fill="#3F3D56"/>
<path d="M420.764 218.79L419.164 223.283L423.788 225.599L427.306 223.283L429.517 218.359L422.984 216.525" fill="#3F3D56"/>
<path d="M163.219 97.6155C163.219 97.6155 167.579 103.38 167.611 106.3L162.805 108.153L158.949 98.8236L157.943 86.9328C157.725 86.6539 157.588 86.3246 157.545 85.9783C157.502 85.6319 157.556 85.2809 157.7 84.9609C157.844 84.6408 158.074 84.3631 158.366 84.1559C158.658 83.9488 159.003 83.8195 159.363 83.7813C159.724 83.7431 160.09 83.7973 160.422 83.9384C160.754 84.0795 161.041 84.3024 161.254 84.5847C161.468 84.8669 161.6 85.1983 161.636 85.5452C161.673 85.8921 161.614 86.2423 161.464 86.5601L163.219 97.6155Z" fill="#FFB6B6"/>
<path d="M212.395 91.9057C212.357 91.5589 212.415 91.2085 212.563 90.8901C212.711 90.5717 212.944 90.2966 213.239 90.0928C213.534 89.889 213.879 89.7636 214.241 89.7295C214.602 89.6954 214.966 89.7538 215.297 89.8986C215.627 90.0435 215.912 90.2697 216.122 90.5543C216.331 90.8389 216.459 91.1718 216.492 91.5192C216.524 91.8665 216.461 92.2159 216.307 92.532C216.154 92.8481 215.916 93.1195 215.618 93.3187L210.785 104.309L204.08 112.01L200.12 108.804C201.102 106.04 207.124 101.877 207.124 101.877L212.395 91.9057Z" fill="#FFB6B6"/>
<path d="M157.111 128.935C157.297 126.038 159.755 123.935 162.435 122.958C165.836 121.718 169.632 122.381 173.104 122.955C176.66 123.578 180.266 123.902 183.881 123.922C192.428 123.893 200.848 121.925 208.454 118.179C216.06 114.433 222.637 109.015 227.649 102.365C231.807 96.8504 235.129 90.2916 235.211 83.3589C235.222 82.516 235.184 81.6732 235.099 80.8343C235.028 80.1483 233.921 80.2841 233.992 80.9714C234.71 87.9676 231.698 94.7834 227.677 100.464C223.983 105.67 219.327 110.182 213.939 113.776C208.297 117.54 201.944 120.21 195.236 121.635C191.752 122.372 188.202 122.779 184.636 122.849C181.025 122.893 177.418 122.606 173.864 121.993C170.326 121.411 166.588 120.718 163.046 121.645C160.274 122.37 157.533 124.18 156.456 126.824C156.201 127.451 156.049 128.113 156.006 128.785C155.962 129.469 157.066 129.625 157.111 128.935Z" fill="#E6E6E6"/>
<path d="M284.105 46.1689C282.888 45.4297 281.69 44.7147 280.541 44.0496C280.367 43.9503 280.195 43.8474 280.022 43.7481L280.001 43.7345C278.967 43.132 277.928 42.5385 276.886 41.9542C276.158 41.5448 275.432 41.1395 274.702 40.7407C274.418 40.5794 274.133 40.4251 273.844 40.2703C273.382 40.0163 272.915 39.7652 272.453 39.5146C272.07 39.3074 271.683 39.1033 271.3 38.8996C270.858 38.6627 270.414 38.4328 269.975 38.1999C269.452 37.9267 268.93 37.656 268.408 37.3878C268.403 37.3842 268.397 37.3821 268.39 37.3818C267.996 37.1766 267.601 36.975 267.21 36.7774C261.894 34.0772 256.467 31.571 251.073 29.3255C250.878 29.2449 250.683 29.1643 250.489 29.0837C250.152 28.9441 249.816 28.8046 249.48 28.665C248.884 28.4217 248.286 28.1815 247.685 27.9446C247.121 27.7164 246.553 27.4948 245.985 27.2731C245.484 27.0787 244.983 26.8842 244.477 26.6928C243.983 26.503 243.488 26.3166 242.99 26.1333C241.505 25.5777 240.02 25.0414 238.535 24.5242C238.524 24.5198 238.513 24.5171 238.502 24.5162C238.145 24.3883 237.792 24.2644 237.434 24.1436C232.005 22.283 226.449 20.6252 220.921 19.2129C220.65 19.1435 220.378 19.074 220.106 19.0082L220.099 19.0072C220.052 18.9936 220.001 18.983 219.953 18.973C219.497 18.8568 219.04 18.7441 218.583 18.635C217.981 18.4882 217.382 18.3454 216.779 18.2056C215.352 17.8708 213.925 17.554 212.498 17.2551C212.137 17.1773 211.78 17.1034 211.422 17.0331C211.011 16.9446 210.598 16.8632 210.189 16.7824C209.766 16.6959 209.343 16.6131 208.919 16.5337C208.758 16.5011 208.601 16.4724 208.444 16.4438C208.247 16.4026 208.045 16.368 207.848 16.3303C207.552 16.2756 207.256 16.2209 206.959 16.1661C201.385 15.1443 195.705 14.35 190.075 13.8042C189.764 13.7727 189.453 13.7447 189.138 13.7163L189.127 13.7148C188.9 13.6948 188.675 13.6713 188.445 13.6509C188.363 13.6434 188.278 13.6354 188.197 13.6279C187.636 13.5806 187.076 13.5332 186.515 13.4894C185.918 13.4405 185.323 13.3957 184.728 13.3545C184.352 13.3286 183.98 13.3033 183.609 13.2779C183.363 13.2625 183.117 13.2472 182.868 13.2313C181.312 13.135 179.753 13.0564 178.203 12.997C177.683 12.9769 177.168 12.9573 176.652 12.9412C176.364 12.9309 176.08 12.9211 175.795 12.9149C170.093 12.7596 164.28 12.8454 158.522 13.1661C158.143 13.1867 157.76 13.2104 157.377 13.234C157.37 13.233 157.362 13.2356 157.355 13.2346C157.298 13.2377 157.237 13.2403 157.18 13.2469C156.786 13.2691 156.388 13.2943 155.993 13.3235C155.557 13.3508 155.124 13.3821 154.687 13.4129C154.323 13.439 153.958 13.4687 153.593 13.4985C152.734 13.5656 151.871 13.6358 151.01 13.7171C149.258 13.8756 147.505 14.0568 145.749 14.2604C145.351 14.3074 144.95 14.3538 144.548 14.4037C144.545 14.4036 144.542 14.4045 144.54 14.4063C144.334 14.4287 144.124 14.4542 143.917 14.4802C138.101 15.197 132.16 16.1711 126.257 17.381C125.823 17.4699 125.389 17.5588 124.95 17.6542C124.94 17.6535 124.93 17.6546 124.92 17.6573C123.745 17.9051 122.562 18.1628 121.372 18.4301C120.94 18.5302 120.505 18.6297 120.069 18.7292C119.649 18.8271 119.225 18.9246 118.805 19.0261C118.435 19.1129 118.069 19.2002 117.699 19.2905C117.403 19.3621 117.11 19.4341 116.814 19.5057C115.8 19.7574 114.787 20.014 113.774 20.2755C113.16 20.4373 112.543 20.5986 111.929 20.764C111.729 20.8163 111.526 20.868 111.327 20.9238C109.847 21.3251 108.499 21.7009 107.204 22.0767C105.825 22.4755 104.593 23.2441 103.653 24.2921C102.713 25.3402 102.105 26.6242 101.898 27.9931L100.057 40.4745C99.8932 41.5865 100.001 42.7199 100.373 43.7848C100.744 44.8497 101.369 45.8169 102.197 46.6096C103.026 47.4022 104.035 47.9986 105.146 48.3514C106.256 48.7043 107.436 48.8038 108.594 48.6422C109.165 48.5612 109.737 48.4802 110.313 48.3998C110.792 48.3316 111.275 48.2674 111.754 48.2027C112.279 48.1334 112.8 48.0636 113.325 47.9943C114.523 47.8434 115.729 47.6935 116.933 47.5543C117.495 47.49 118.056 47.4257 118.618 47.3614C119.501 47.2614 120.382 47.1685 121.264 47.0756C121.508 47.0511 121.752 47.0265 121.996 47.002C125.829 46.6143 129.67 46.2928 133.471 46.045C133.862 46.0188 134.252 45.9961 134.639 45.973C136.235 45.8727 137.821 45.7877 139.395 45.7181L140.53 45.6668L140.541 45.6683C140.912 45.6502 141.282 45.6357 141.652 45.6211C142.688 45.5816 143.728 45.5475 144.774 45.5191C145.374 45.4997 145.978 45.4844 146.581 45.4726C146.641 45.47 146.702 45.4674 146.762 45.4684C147.802 45.444 148.844 45.4258 149.888 45.4139C150.595 45.4055 151.306 45.3976 152.017 45.3968C152.622 45.3926 153.227 45.392 153.832 45.3913C159.564 45.399 165.328 45.5663 170.967 45.9005C171.455 45.9272 171.943 45.9575 172.43 45.9878C174.321 46.1079 176.225 46.2442 178.128 46.4022C180.481 46.5996 182.838 46.8228 185.179 47.0728C190.801 47.6681 196.477 48.4402 202.046 49.3676C204.371 49.7524 206.7 50.1666 209.017 50.6045C210.892 50.9606 212.76 51.3374 214.611 51.7263C215.088 51.8273 215.565 51.9283 216.042 52.0328C221.551 53.2153 227.138 54.5887 232.653 56.1147C232.917 56.1867 233.176 56.2617 233.44 56.3336C233.534 56.3608 233.624 56.3839 233.718 56.4111C234.118 56.5233 234.518 56.639 234.919 56.7512C236.422 57.1795 237.923 57.6205 239.42 58.0743C239.805 58.188 240.19 58.3053 240.571 58.4221C241.394 58.6748 242.213 58.9293 243.028 59.1857C243.501 59.3367 243.971 59.4872 244.441 59.6378C244.739 59.7324 245.04 59.8275 245.338 59.9257C245.7 60.0435 246.062 60.1613 246.42 60.2786C247.012 60.4709 247.603 60.6668 248.197 60.8667C248.569 60.9931 248.945 61.1164 249.32 61.2468C253.324 62.6033 257.354 64.0643 261.353 65.6041C261.769 65.7653 262.185 65.9265 262.6 66.0877C262.657 66.1098 262.71 66.1315 262.767 66.1537C263.197 66.3204 263.627 66.4907 264.056 66.6609C264.67 66.9032 265.285 67.1492 265.901 67.3989C266.422 67.607 266.943 67.8186 267.464 68.0337C269.073 68.6891 270.679 69.3623 272.273 70.0445C273.244 70.4617 274.211 70.8817 275.171 71.3047L275.179 71.3057C275.562 71.4737 275.959 71.6098 276.366 71.7125C276.654 71.7877 276.946 71.8456 277.242 71.8858C279.217 72.1505 281.22 71.6512 282.812 70.4978C284.404 69.3444 285.454 67.6313 285.731 65.7349L287.564 53.3102C287.764 51.9264 287.544 50.5166 286.931 49.2499C286.317 47.9831 285.336 46.9133 284.105 46.1689Z" fill="#6C63FF"/>
<path d="M125.932 17.9208C125.802 17.805 125.645 17.7204 125.474 17.674C125.303 17.6276 125.123 17.6206 124.949 17.6536C124.939 17.6529 124.929 17.654 124.919 17.6567C123.744 17.9045 122.561 18.1621 121.371 18.4295C120.939 18.5295 120.504 18.629 120.068 18.7285C119.648 18.8265 119.224 18.924 118.804 19.0255C118.434 19.1123 118.068 19.1996 117.698 19.2899C117.402 19.3615 117.109 19.4335 116.813 19.5051C115.799 19.7568 114.786 20.0134 113.773 20.2749C113.159 20.4367 112.542 20.598 111.928 20.7634C111.714 20.8203 111.522 20.9359 111.375 21.0961C111.229 21.2563 111.135 21.454 111.104 21.665L107.307 47.4023C107.281 47.572 107.297 47.7452 107.354 47.9078C107.411 48.0704 107.507 48.2178 107.635 48.338C107.715 48.4139 107.807 48.4786 107.907 48.5302C108.118 48.6354 108.358 48.6732 108.593 48.638L110.308 48.3951C110.788 48.3304 111.267 48.2658 111.746 48.2011C112.271 48.1318 112.796 48.0625 113.324 47.9937C114.522 47.8428 115.728 47.6929 116.932 47.5537C117.494 47.4859 118.056 47.4216 118.617 47.3608C119.5 47.2608 120.381 47.1679 121.263 47.075C121.48 47.052 121.687 46.97 121.857 46.8384L121.862 46.8354C122.08 46.6618 122.223 46.4164 122.264 46.1469L126.286 18.8782C126.312 18.703 126.294 18.5243 126.232 18.3575C126.17 18.1907 126.067 18.0409 125.932 17.9208Z" fill="#3F3D56"/>
<path d="M158.256 13.5811C158.145 13.4645 158.008 13.3729 157.856 13.3129C157.704 13.2529 157.54 13.2259 157.376 13.234C157.368 13.233 157.36 13.2355 157.353 13.2345C157.296 13.2376 157.236 13.2402 157.178 13.2468C156.784 13.269 156.386 13.2942 155.991 13.3234C155.555 13.3507 155.122 13.382 154.686 13.4128C154.321 13.439 153.956 13.4687 153.591 13.4984C152.732 13.5655 151.869 13.6357 151.008 13.717C149.253 13.8751 147.499 14.0562 145.747 14.2604C145.38 14.3007 145.01 14.3441 144.643 14.3879C144.61 14.3915 144.578 14.3968 144.546 14.4037C144.543 14.4036 144.541 14.4045 144.538 14.4062C144.312 14.455 144.106 14.5686 143.949 14.7321C143.791 14.8955 143.689 15.1011 143.656 15.3216L139.362 44.4258C139.339 44.5844 139.351 44.7461 139.4 44.8993C139.449 45.0525 139.533 45.1935 139.645 45.3121C139.722 45.3939 139.812 45.4634 139.911 45.5179C140.039 45.5898 140.18 45.6371 140.326 45.6574C140.393 45.6658 140.461 45.669 140.528 45.6668L140.539 45.6683C140.91 45.6502 141.28 45.6356 141.65 45.621C142.686 45.5815 143.726 45.5475 144.772 45.519C145.373 45.4997 145.976 45.4843 146.579 45.4726C146.639 45.47 146.7 45.4674 146.76 45.4683C147.8 45.4439 148.842 45.4258 149.886 45.4138C150.593 45.4054 151.305 45.3976 152.015 45.3968C152.346 45.3914 152.677 45.393 153.007 45.3911C153.226 45.3918 153.44 45.3306 153.623 45.2151C153.759 45.1302 153.875 45.0184 153.962 44.8872C154.049 44.756 154.107 44.6084 154.13 44.4543L158.552 14.4799C158.576 14.3184 158.562 14.1538 158.51 13.9982C158.459 13.8426 158.372 13.7001 158.256 13.5811Z" fill="#3F3D56"/>
<path d="M189.864 14.1235C189.684 13.9045 189.423 13.7594 189.135 13.7177L189.08 13.7102C188.868 13.6922 188.654 13.6702 188.442 13.6523C188.361 13.6448 188.276 13.6368 188.194 13.6293C187.634 13.582 187.073 13.5346 186.513 13.4908C185.915 13.4419 185.321 13.3971 184.726 13.3559C184.35 13.33 183.978 13.3047 183.606 13.2793C183.36 13.264 183.115 13.2486 182.865 13.2327C181.309 13.1364 179.75 13.0578 178.2 12.9985C177.681 12.9783 177.165 12.9587 176.649 12.9426C176.368 12.9336 176.094 13.0249 175.879 13.1988C175.664 13.3728 175.523 13.6171 175.485 13.8845L170.936 44.7218C170.913 44.8701 170.924 45.0213 170.966 45.1655C171.008 45.3098 171.081 45.444 171.18 45.5596C171.24 45.6313 171.308 45.6952 171.385 45.7499C171.537 45.8581 171.716 45.9282 171.903 45.9539C171.929 45.9574 171.959 45.9579 171.989 45.9619C172.134 45.9708 172.283 45.9802 172.428 45.9891C174.319 46.1093 176.222 46.2456 178.126 46.4036C180.179 46.571 182.228 46.7632 184.263 46.9751C184.483 47.0017 184.705 46.9642 184.902 46.8673C185.066 46.7877 185.206 46.6713 185.313 46.5281C185.419 46.3848 185.487 46.2189 185.512 46.0447L190.098 14.9563C190.121 14.8095 190.111 14.6599 190.071 14.5166C190.031 14.3734 189.96 14.2396 189.864 14.1235Z" fill="#3F3D56"/>
<path d="M220.102 19.0094L220.095 19.0084C220.048 18.9948 219.997 18.9842 219.95 18.9742C219.493 18.858 219.037 18.7454 218.579 18.6363C217.977 18.4894 217.379 18.3466 216.776 18.2069C215.349 17.872 213.921 17.5552 212.494 17.2564C212.134 17.1785 211.776 17.1046 211.419 17.0343C211.007 16.9458 210.595 16.8645 210.186 16.7836C209.763 16.6972 209.339 16.6143 208.915 16.5349C208.755 16.5023 208.597 16.4737 208.44 16.4451C208.272 16.4114 208.108 16.3782 207.943 16.3486C207.911 16.3412 207.878 16.3355 207.844 16.3316C207.569 16.3021 207.292 16.3725 207.068 16.5289C206.941 16.6149 206.833 16.725 206.753 16.8524C206.672 16.9798 206.619 17.1218 206.598 17.2695L202.021 48.2908C201.995 48.4651 202.013 48.6431 202.074 48.8093C202.135 48.9754 202.238 49.1247 202.373 49.2441C202.533 49.3895 202.735 49.4849 202.952 49.5178C204.969 49.857 206.993 50.219 209.013 50.6057C210.888 50.9618 212.756 51.3386 214.607 51.7275C214.749 51.7576 214.895 51.7883 215.037 51.8185C215.066 51.8225 215.092 51.8295 215.121 51.8335C215.309 51.8589 215.5 51.8391 215.678 51.7758C215.767 51.7437 215.852 51.7007 215.93 51.6477C216.058 51.5625 216.167 51.4529 216.249 51.3256C216.331 51.1984 216.385 51.0563 216.407 50.9081L220.934 20.2194C220.972 19.955 220.909 19.6864 220.756 19.4637C220.603 19.2411 220.37 19.0796 220.102 19.0094Z" fill="#3F3D56"/>
<path d="M250.486 29.0844C250.458 29.0694 250.43 29.056 250.401 29.0441C250.094 28.9156 249.785 28.7906 249.477 28.6657C248.881 28.4224 248.283 28.1822 247.682 27.9453C247.118 27.7171 246.55 27.4955 245.982 27.2738C245.481 27.0794 244.979 26.8849 244.474 26.6935C243.98 26.5036 243.485 26.3173 242.986 26.134C241.502 25.5784 240.017 25.0421 238.532 24.5249C238.521 24.5205 238.51 24.5178 238.499 24.5169C238.344 24.4668 238.18 24.4497 238.018 24.4669C237.856 24.4841 237.7 24.5351 237.56 24.6164C237.414 24.6998 237.289 24.8135 237.195 24.9493C237.101 25.0851 237.04 25.2395 237.016 25.4011L232.63 55.1349C232.607 55.2895 232.62 55.447 232.666 55.5965C232.713 55.7461 232.793 55.8842 232.9 56.0015C233.041 56.1609 233.228 56.2767 233.437 56.3343C233.531 56.3615 233.621 56.3846 233.715 56.4118C234.115 56.524 234.516 56.6362 234.916 56.7519C236.419 57.1802 237.919 57.6212 239.417 58.075C239.802 58.1887 240.186 58.306 240.567 58.4228C241.391 58.6755 242.21 58.93 243.025 59.1864C243.498 59.3374 243.968 59.4879 244.438 59.6384C244.736 59.7331 245.037 59.8282 245.335 59.9264C245.402 59.947 245.472 59.9624 245.542 59.9726C245.689 59.9926 245.838 59.9847 245.981 59.9494C246.093 59.9244 246.2 59.8816 246.297 59.8228C246.439 59.7387 246.56 59.6256 246.651 59.4914C246.742 59.3573 246.801 59.2054 246.824 59.0467L251.079 30.2042C251.112 29.9816 251.072 29.7548 250.966 29.5546C250.86 29.3543 250.692 29.1901 250.486 29.0844Z" fill="#3F3D56"/>
<path d="M280.02 43.7487L279.999 43.735C278.965 43.1325 277.927 42.5391 276.885 41.9548C276.156 41.5454 275.431 41.14 274.701 40.7413C274.416 40.5799 274.131 40.4257 273.842 40.2709C273.38 40.0168 272.913 39.7657 272.451 39.5152C272.068 39.308 271.681 39.1038 271.298 38.9002C270.856 38.6632 270.413 38.4334 269.974 38.2005C269.45 37.9273 268.928 37.6566 268.407 37.3884C268.401 37.3848 268.395 37.3827 268.389 37.3824C268.23 37.3019 268.054 37.2596 267.875 37.2591C267.695 37.2586 267.519 37.2999 267.36 37.3795C267.196 37.4589 267.055 37.5751 266.948 37.7183C266.841 37.8614 266.772 38.0272 266.746 38.2016L262.754 65.2616C262.721 65.4862 262.762 65.7151 262.872 65.9161C262.893 65.9554 262.916 65.9935 262.942 66.0302L262.945 66.0343C263.07 66.2068 263.245 66.3409 263.448 66.4202C263.65 66.4983 263.852 66.5799 264.054 66.6615C264.669 66.9038 265.283 67.1498 265.899 67.3995C266.421 67.6075 266.942 67.8191 267.462 68.0343C269.071 68.6897 270.677 69.3628 272.271 70.045C273.243 70.4622 274.209 70.8823 275.169 71.3052L275.177 71.3062C275.275 71.348 275.378 71.3766 275.484 71.3912C275.608 71.4077 275.734 71.4042 275.857 71.3807C275.968 71.3593 276.075 71.3215 276.174 71.2687C276.33 71.1863 276.464 71.0699 276.565 70.929C276.666 70.788 276.732 70.6263 276.756 70.4568L280.537 44.8256C280.568 44.6173 280.536 44.4048 280.444 44.2137C280.352 44.0226 280.205 43.8611 280.02 43.7487Z" fill="#3F3D56"/>
<path d="M110.328 48.4205C114.666 52.1765 119.262 55.6483 123.91 59.0422C128.881 62.6728 133.923 66.2129 138.896 69.842C143.899 73.4931 148.839 77.2315 153.547 81.2305C158.135 85.0566 162.389 89.2362 166.267 93.7274C169.931 98.0488 173.132 102.757 175.438 107.882C175.713 108.493 175.975 109.109 176.224 109.73C176.483 110.374 177.516 109.969 177.257 109.325C175.107 104.128 172.195 99.2521 168.61 94.8458C164.86 90.24 160.696 85.9595 156.166 82.0536C151.507 77.9599 146.581 74.1547 141.576 70.4602C136.586 66.7765 131.507 63.2055 126.481 59.5673C121.749 56.1426 117.053 52.6618 112.589 48.9169C112.063 48.4753 111.54 48.0297 111.021 47.5802C110.486 47.1171 109.797 47.9606 110.328 48.4205Z" fill="#3F3D56"/>
<path d="M130.81 38.5057C132.374 43.7911 134.499 48.9083 137.151 53.777C139.865 58.7629 142.839 63.6142 146.061 68.3125C149.274 73.0828 152.617 77.7711 155.861 82.5216C159.069 87.2181 162.191 91.9782 164.952 96.9323C167.705 101.763 169.966 106.838 171.704 112.086C171.912 112.735 172.11 113.388 172.297 114.043C172.487 114.707 173.518 114.297 173.33 113.638C171.766 108.352 169.641 103.235 166.989 98.3664C164.275 93.3805 161.301 88.5292 158.078 83.8309C154.865 79.0606 151.523 74.3723 148.279 69.6218C145.071 64.9253 141.949 60.1652 139.188 55.211C136.435 50.3802 134.174 45.3056 132.436 40.0577C132.228 39.4081 132.03 38.7555 131.843 38.1C131.653 37.4368 130.621 37.8469 130.81 38.5057Z" fill="#3F3D56"/>
<path d="M264.934 63.2091C260.15 66.4973 255.156 69.493 249.981 72.1786C244.601 75.0312 239.115 77.6927 233.649 80.3882C228.191 83.0794 222.747 85.8024 217.45 88.7763C212.349 91.5749 207.478 94.7448 202.881 98.2582C198.58 101.614 194.608 105.414 191.408 109.773C191.023 110.297 190.65 110.829 190.288 111.368C189.901 111.944 190.774 112.613 191.163 112.034C194.193 107.627 197.875 103.668 202.093 100.281C206.554 96.6997 211.316 93.4789 216.33 90.6518C221.551 87.6387 226.942 84.9089 232.353 82.2289C237.826 79.5189 243.329 76.8652 248.741 74.0445C253.959 71.384 259.018 68.4442 263.893 65.239C264.468 64.8537 265.038 64.4626 265.604 64.0656C266.185 63.6584 265.514 62.8022 264.934 63.2091Z" fill="#3F3D56"/>
<path d="M254.988 51.8921C251.956 56.5522 248.435 60.9012 244.479 64.8709C240.427 68.9347 236.164 72.7981 231.704 76.4461C227.234 80.1681 222.667 83.78 218.179 87.4812C213.741 91.1403 209.376 94.8898 205.29 98.9125C201.248 102.819 197.608 107.091 194.421 111.668C194.033 112.237 193.654 112.811 193.285 113.391C192.914 113.973 193.785 114.643 194.16 114.056C197.191 109.396 200.713 105.047 204.669 101.077C208.72 97.0137 212.984 93.1503 217.444 89.5023C221.913 85.7803 226.481 82.1684 230.969 78.4672C235.406 74.8081 239.772 71.0586 243.858 67.0359C247.899 63.1295 251.539 58.8577 254.727 54.28C255.115 53.7114 255.493 53.1373 255.863 52.5574C256.234 51.9753 255.362 51.3049 254.988 51.8921Z" fill="#3F3D56"/>
<path d="M153.549 175.509L153.903 177.924L163.771 177.762L163.248 174.197L153.549 175.509Z" fill="#FFB6B6"/>
<path d="M150.917 175.778L152.006 183.203L152.104 183.19C152.902 183.082 153.623 182.674 154.108 182.056C154.593 181.437 154.802 180.659 154.69 179.893L155.562 178.391L154.12 176.006L154.025 175.357L150.917 175.778Z" fill="#2F2E41"/>
<path d="M193.3 192.542L195.831 192.346L196.25 182.877L192.514 183.166L193.3 192.542Z" fill="#FFB6B6"/>
<path d="M192.688 195.156L200.472 194.554L200.464 194.46C200.399 193.688 200.018 192.973 199.404 192.471C198.79 191.969 197.994 191.722 197.191 191.785L195.682 190.859L193.116 192.1L192.437 192.152L192.688 195.156Z" fill="#2F2E41"/>
<path d="M193.17 141.505L197.821 186.787L192.319 186.51L188.459 171.043L181.709 152.537L179.646 172.33L160.922 179.689L157.648 173.79L172.524 168.531L170.328 141.666L172.407 138.68L193.17 141.505Z" fill="#2F2E41"/>
<path d="M170.352 142.309C168.908 139.643 172.827 136.11 173.36 135.323C172.897 135.105 172.527 134.741 172.313 134.291C172.099 133.841 172.053 133.334 172.185 132.856L172.573 131.442L172.964 130.057L171.836 128.616L171.837 128.584L172.018 122.122L171.541 117.749C171.362 116.096 171.644 114.427 172.359 112.914C173.073 111.4 174.194 110.096 175.607 109.136L178.207 109.094L181.72 106.655L186.704 107.333L188.182 109.134C191.293 110.105 191.867 110.004 194.142 113.535L191.448 123.184L190.938 124.493L190.669 126.325L191.334 127.275C191.574 127.617 191.727 128.009 191.781 128.418C191.836 128.827 191.79 129.243 191.647 129.632L191.47 130.117C192.235 130.563 192.133 136.626 192.196 137.483L192.29 138.764C192.483 139.097 193.754 141.316 193.673 141.864C193.661 141.946 193.586 142.017 193.437 142.087C192.267 142.636 182.651 143.202 180.188 141.844C177.564 140.397 170.352 142.309 170.352 142.309Z" fill="#E6E6E6"/>
<path d="M164.662 111.817L166.474 114.69C167.156 115.771 168.054 116.711 169.116 117.458C170.177 118.204 171.383 118.742 172.662 119.04C173.455 119.221 174.285 119.186 175.058 118.939C175.832 118.691 176.517 118.24 177.038 117.638C177.738 116.817 178.088 115.771 178.016 114.712C177.944 113.653 177.456 112.66 176.65 111.933C174.206 109.731 173.144 106.69 170.873 107.321L170.574 106.175L165.245 100.687L159.713 104.08L164.662 111.817Z" fill="#E6E6E6"/>
<path d="M208.344 109.07L204.197 104.183L200.139 105.953L199.481 106.951C197.531 105.669 192.737 110.078 189.697 111.433C188.695 111.881 187.908 112.678 187.494 113.662C187.08 114.646 187.071 115.744 187.468 116.735C187.766 117.463 188.271 118.098 188.924 118.565C189.578 119.033 190.355 119.316 191.167 119.382C192.479 119.484 193.799 119.336 195.051 118.947C196.303 118.557 197.462 117.934 198.462 117.112L201.12 114.929L208.344 109.07Z" fill="#E6E6E6"/>
<path d="M184.076 105.568C187.134 105.984 189.963 103.941 190.396 101.006C190.829 98.0697 188.702 95.3526 185.645 94.9367C182.588 94.5208 179.758 96.5636 179.325 99.4994C178.892 102.435 181.019 105.152 184.076 105.568Z" fill="#FFB6B6"/>
<path d="M180.294 103.452C180.252 103.405 180.213 103.355 180.172 103.307C180.169 103.311 180.168 103.316 180.166 103.32L180.294 103.452Z" fill="#2F2E41"/>
<path d="M190.356 98.9668C190.329 98.9451 190.306 98.9239 190.279 98.9057C189.955 98.5814 189.526 98.3739 189.062 98.3181C188.612 98.311 188.202 98.5656 187.761 98.6282C186.814 98.7591 185.989 98.0118 185.055 97.8199L185.033 97.8169C184.736 97.7579 184.429 97.7558 184.13 97.8107C183.832 97.8656 183.547 97.9764 183.293 98.1368C183.039 98.2973 182.821 98.5042 182.65 98.7457C182.48 98.9873 182.36 99.2587 182.299 99.5446C182.237 99.8357 182.234 100.135 182.155 100.42C182.123 100.565 182.054 100.701 181.955 100.816C181.856 100.93 181.728 101.019 181.585 101.075C181.142 101.198 180.622 100.853 180.227 101.085C179.877 101.293 179.919 101.797 180.055 102.173C180.231 102.497 180.286 102.87 180.211 103.229C180.2 103.257 180.187 103.284 180.173 103.311C179.433 102.432 178.893 101.415 178.588 100.324C178.283 99.2326 178.22 98.0922 178.402 96.9761C178.461 96.4812 178.639 96.0062 178.923 95.5894C179.065 95.3817 179.259 95.2112 179.487 95.093C179.715 94.9748 179.97 94.9126 180.229 94.912C180.668 94.9357 181.09 95.1843 181.522 95.106C182.055 95.0125 182.351 94.4792 182.683 94.0626C183.09 93.5673 183.63 93.189 184.246 92.9692C184.861 92.7494 185.528 92.6966 186.173 92.8164C186.634 92.924 187.082 93.0756 187.511 93.2691L188.354 93.6182C188.677 93.7393 188.985 93.8938 189.274 94.0789C189.69 94.3901 190.018 94.7956 190.231 95.2589C190.413 95.6333 190.543 96.0296 190.617 96.4371C190.127 96.3952 189.643 96.3125 189.169 96.1897C189.673 96.5937 190.181 96.9983 190.684 97.4024C190.672 97.9384 190.561 98.4681 190.356 98.9668Z" fill="#2F2E41"/>
<g opacity="0.2">
<path d="M95.7302 41.159C95.8594 41.0345 95.993 40.9159 96.1239 40.7938L96.1382 40.74L95.7302 41.159Z" fill="black"/>
<path d="M284.441 68.2647C283.616 69.6025 282.372 70.6474 280.895 71.2421C279.418 71.8367 277.789 71.949 276.252 71.562C275.853 71.4601 275.464 71.3259 275.089 71.1608C270.976 69.3343 266.85 67.6087 262.71 65.984C257.296 63.8516 251.857 61.8859 246.393 60.0869C241.826 58.5816 237.242 57.1926 232.641 55.92C227.132 54.3953 221.6 53.0376 216.045 51.8469C211.402 50.849 206.74 49.9684 202.06 49.2053C196.463 48.2855 190.842 47.5351 185.196 46.954C180.477 46.4635 175.739 46.0891 170.982 45.8309C165.293 45.5194 159.579 45.3757 153.84 45.4C149.044 45.4205 144.229 45.5547 139.395 45.8028C133.615 46.0994 127.809 46.5639 121.978 47.1963C117.518 47.6765 113.045 48.2541 108.561 48.9292C108.151 48.9895 107.738 49.0166 107.325 49.0102C106.289 48.9908 105.271 48.7574 104.339 48.3254C103.407 47.8935 102.581 47.2726 101.916 46.5038C101.251 45.735 100.762 44.8356 100.48 43.8648C100.199 42.894 100.132 41.8738 100.283 40.8713L100.785 37.5462C110.189 31.3165 122.44 29.4829 133.933 29.8351C147.601 30.2538 161.1 33.2563 174.781 33.0894C185.935 32.9522 197.333 30.7257 208.098 33.466C217.479 35.8491 225.459 41.7969 234.586 44.9683C246.035 48.9454 258.838 48.4042 270.112 52.8204C274.532 54.5485 278.733 57.11 281.509 60.8763C283.119 63.0473 284.129 65.5909 284.441 68.2647Z" fill="black"/>
</g>
<path d="M181.173 129.504C185.08 130.036 188.697 127.424 189.251 123.672C189.804 119.919 187.085 116.445 183.177 115.914C179.27 115.382 175.653 117.993 175.099 121.746C174.546 125.499 177.265 128.972 181.173 129.504Z" fill="#6C63FF"/>
<path d="M189.478 107.572C189.325 106.797 188.336 106.519 187.522 106.411C185.708 106.169 183.885 105.997 182.055 105.894L182.266 105.717C181.814 105.457 181.293 105.328 180.767 105.346C180.247 105.414 179.756 105.908 179.915 106.388C180.035 106.748 180.477 107.026 180.388 107.394C180.237 108.017 178.996 107.635 178.709 108.212C178.665 108.328 178.658 108.455 178.692 108.575C178.725 108.695 178.796 108.802 178.895 108.881C179.097 109.037 179.333 109.145 179.585 109.2C182.221 109.941 185.018 109.975 187.673 109.297C188.133 109.203 188.568 109.018 188.949 108.753C189.137 108.618 189.285 108.438 189.378 108.231C189.471 108.023 189.505 107.796 189.478 107.572Z" fill="#E6E6E6"/>
<path d="M127.323 299.283L130.224 293.391L147.172 303.688L145.206 307.68L127.323 299.283Z" fill="#A0616A"/>
<path d="M142.015 300.202L141.792 302.674L142.983 303.325C142.983 303.325 141.337 303.047 139.589 305.446L140.569 306.385C140.569 306.385 141.139 308.001 143.281 308.955L149.129 311.312L150.177 309.354L146.54 306.947C146.54 306.947 145.976 305.939 151.472 305.744C151.472 305.744 153.342 305.587 154.314 300.637C154.447 299.956 154.141 299.264 153.535 298.941C153.201 298.763 152.821 298.726 152.473 299.085C151.59 300 151.356 301.239 150.121 301.465C148.886 301.69 142.015 300.202 142.015 300.202Z" fill="#2F2E41"/>
<path d="M114.238 311.222L117.57 305.559L133.664 317.109L131.407 320.946L114.238 311.222Z" fill="#A0616A"/>
<path d="M128.799 313.234L128.391 315.686L129.528 316.426C129.528 316.426 127.909 316.024 125.987 318.289L126.893 319.301C126.893 319.301 127.339 320.958 129.401 322.071L135.047 324.865L136.238 322.988L132.798 320.311C132.798 320.311 132.311 319.262 137.8 319.479C137.8 319.479 139.674 319.462 141.015 314.591C141.199 313.922 140.946 313.208 140.367 312.84C140.048 312.637 139.672 312.571 139.299 312.904C138.35 313.751 138.024 314.971 136.777 315.104C135.53 315.236 128.799 313.234 128.799 313.234Z" fill="#2F2E41"/>
<path d="M91.658 242.737C92.2609 243.498 94.2698 242.274 94.1984 243.244C94.1271 244.214 91.976 247.369 91.2672 248.047C90.9149 248.384 90.5032 248.656 90.1537 248.996C89.8041 249.336 89.5101 249.771 89.4884 250.254C89.4506 251.094 90.2179 251.754 90.3896 252.576C90.5896 253.533 89.9564 254.455 89.3464 255.231C88.8207 255.9 88.2784 256.57 87.5947 257.079C86.911 257.589 86.0611 257.929 85.2139 257.845C84.1353 257.738 83.2524 256.984 82.4882 256.228C81.7536 255.501 81.0491 254.729 80.5426 253.83C80.0362 252.931 79.7366 251.89 79.8604 250.863C80.0158 249.575 80.8255 248.426 81.8448 247.604C82.8642 246.783 84.0842 246.25 85.3057 245.775C87.363 244.974 89.4732 244.31 91.6174 243.788" fill="#2F2E41"/>
<path d="M86.3907 253.771C89.7849 254.221 92.9283 251.857 93.4118 248.492C93.8953 245.126 91.5358 242.033 88.1417 241.584C84.7476 241.134 81.6041 243.498 81.1206 246.863C80.6371 250.229 82.9966 253.322 86.3907 253.771Z" fill="#A0616A"/>
<path d="M93.7728 266.117L98.6036 277.778L109.655 285.625L106.14 288.072L95.1458 282.188L88.5719 270.875L89.9398 265.976L93.7728 266.117Z" fill="#A0616A"/>
<path d="M82.1051 254.052L87.4508 256.228L86.9912 258.861L90.5522 267.457C90.5522 267.457 94.2772 273.108 89.9263 276.273L91.8883 279.187L75.1113 283.64L70.9466 263.26L78.3743 256.588L82.1051 254.052Z" fill="#6C63FF"/>
<path d="M85.9208 259.304C85.9208 259.304 89.8178 255.954 91.9163 259.805C94.0148 263.656 94.7364 267.828 94.7364 267.828L88.1788 269.918L85.9208 259.304Z" fill="#6C63FF"/>
<path d="M74.0506 282.591C74.0506 282.591 89.0264 276.523 91.6478 278.295L96.0354 285.545L101.02 286.34L123.153 286.975L133.027 294.96L127.675 299.656L120.743 295.072L109.13 297.485C109.13 297.485 113.096 298.482 112.837 301.197L120.789 306.725L113.972 311.53L103.159 303.957C103.159 303.957 83.318 300.126 78.0688 292.606C72.8197 285.086 74.0506 282.591 74.0506 282.591Z" fill="#2F2E41"/>
<path d="M82.6961 251.822L83.8683 250.096C83.8683 250.096 91.6082 244.785 93.3067 247.063L93.1547 249.733C93.1547 249.733 94.4046 249.713 94.283 247.901C94.1614 246.089 94.7715 246.954 94.7715 246.954C94.7715 246.954 96.3875 246.906 95.4065 245.45C94.4255 243.993 94.7728 241.49 90.6177 242.09C88.3097 242.424 85.3418 243.413 83.1592 244.227C80.7093 245.141 79.5815 248.028 80.8966 250.25C81.2896 250.914 81.8637 251.484 82.6961 251.822Z" fill="#2F2E41"/>
<path d="M112.93 291.473C113.967 290.379 113.429 288.213 111.73 286.636C110.03 285.059 107.812 284.669 106.775 285.764C105.739 286.859 106.276 289.024 107.976 290.601C109.675 292.178 111.894 292.568 112.93 291.473Z" fill="#A0616A"/>
<path d="M104.467 256.675L104.818 258.579L104.205 258.497C104.205 258.497 104.382 262.7 101.844 262.983C99.3055 263.266 97.6003 259.093 97.6003 259.093L96.4155 259.478C96.4155 259.478 96.68 264.156 93.2227 264.317C89.7654 264.478 89.1073 260.367 89.1073 260.367L81.0545 259.919L81.7101 257.529L88.8237 259.201C88.8237 259.201 88.931 257.248 93.2637 257.512L99.5656 257.109L104.467 256.675Z" fill="#2F2E41"/>
<path d="M77.5847 262.875L76.9199 266.13L88.0474 264.137L87.6582 267.476L73.6855 274.632C73.6855 274.632 70.7387 268.945 70.5607 267.088C70.3826 265.232 71.0082 262.49 71.0082 262.49L77.5847 262.875Z" fill="#A0616A"/>
<path d="M79.959 257.672C79.959 257.672 76.7377 253.541 74.3446 256.268C71.9516 258.996 70.1585 264.083 70.1585 264.083L78.0484 264.298L79.959 257.672Z" fill="#6C63FF"/>
<path d="M77.0486 253.961C77.5849 256.399 77.28 259.018 76.196 261.284C78.0187 261.171 79.6916 260.047 80.7306 258.551C81.7696 257.056 82.2297 255.229 82.3367 253.424L82.3398 253.37C82.4908 250.656 84.3972 248.33 87.0694 247.692C88.8718 247.262 90.5974 246.504 92.121 245.45C92.9812 244.856 93.85 244.024 93.8317 242.99C93.8148 242.036 93.0499 241.283 92.3059 240.684C90.607 239.317 88.6818 238.149 86.5342 237.702C84.3865 237.256 81.9863 237.614 80.2909 239.015C78.5955 240.415 77.8145 242.951 78.7854 244.896C78.2376 244.854 77.6818 245.224 77.5108 245.742C77.3397 246.261 77.5702 246.879 78.0394 247.159C77.7173 247.014 77.3436 247.363 77.3319 247.715C77.3202 248.066 77.5413 248.377 77.7621 248.65C78.0766 249.039 78.4312 249.457 78.1867 250.041C78.0886 250.275 77.9089 250.468 77.6915 250.602C77.1647 250.928 76.5406 250.917 75.942 250.901C76.8992 251.666 77.3606 252.991 77.0854 254.185" fill="#2F2E41"/>
<path d="M90.1781 266.92C92.0402 265.503 92.8095 263.396 91.8965 262.214C90.9834 261.032 88.7337 261.223 86.8716 262.64C85.0095 264.058 84.2402 266.165 85.1532 267.347C86.0663 268.529 88.316 268.338 90.1781 266.92Z" fill="#A0616A"/>
<path d="M285.429 138.217C284.506 138.715 283.017 136.746 282.68 137.709C282.343 138.672 283.16 142.558 283.581 143.49C283.791 143.954 284.087 144.378 284.293 144.842C284.498 145.307 284.609 145.842 284.427 146.316C284.111 147.141 283.067 147.476 282.549 148.201C281.946 149.046 282.19 150.183 282.472 151.171C282.715 152.022 282.973 152.881 283.441 153.64C283.909 154.4 284.613 155.061 285.494 155.313C286.616 155.633 287.815 155.253 288.896 154.823C289.935 154.41 290.964 153.942 291.848 153.274C292.732 152.607 293.47 151.72 293.779 150.681C294.166 149.379 293.842 147.953 293.171 146.761C292.5 145.569 291.507 144.576 290.488 143.639C288.772 142.06 286.946 140.591 285.026 139.246" fill="#2F2E41"/>
<path d="M299.148 205.07L297.225 222.308C297.225 222.308 301.713 231.234 296.905 242.007L296.584 248.164L291.135 247.548L292.417 242.315L289.533 221.076L287.289 205.686L299.148 205.07Z" fill="#FFB6B6"/>
<path d="M283.761 204.764C283.761 204.764 285.043 218.307 282.479 225.387C282.479 225.387 283.761 236.16 280.235 247.549V256.028L274.466 254.937L274.786 223.232L273.184 205.995L283.761 204.764Z" fill="#FFB6B6"/>
<path d="M282.941 152.046C284.566 154.011 287.431 154.581 289.743 153.411C293.043 151.741 297.549 149.827 298.345 151.356C299.627 153.819 299.627 156.209 299.627 156.209L300.909 184.908C300.909 184.908 301.55 196.495 293.537 195.472C285.524 194.45 273.023 198.759 273.023 198.759L274.3 186.045L277.71 181.252L279.091 167.499L276.709 156.435L279.594 155.204C279.594 155.204 279.915 153.049 280.876 153.049C281.838 153.049 282.07 150.979 282.916 152.014L282.941 152.046Z" fill="#6C63FF"/>
<path d="M299.787 184.447L300.428 218.779C300.428 218.779 294.659 227.398 288.569 220.318L285.043 203.224L284.402 223.089C284.402 223.089 275.748 227.398 273.184 224.012L273.023 198.76L278.953 187.218L299.787 184.447Z" fill="#2F2E41"/>
<path d="M296.772 244.535C296.772 244.535 298.826 246.008 298.185 247.854C297.544 249.701 292.736 256.781 288.57 255.858C284.403 254.934 286.326 252.779 286.326 252.779L291.134 246.008C291.134 246.008 293.057 246.315 294.018 246.931C294.98 247.547 296.772 244.535 296.772 244.535Z" fill="#2F2E41"/>
<path d="M280.237 253.396C280.237 253.396 283.763 256.782 281.84 258.321C279.917 259.86 266.775 261.091 267.096 259.244C267.416 257.397 274.147 252.165 274.147 252.165C274.147 252.165 276.07 251.549 276.711 253.088C277.352 254.627 280.237 253.396 280.237 253.396Z" fill="#2F2E41"/>
<path d="M287.729 151.134C291.426 151.134 294.423 148.256 294.423 144.706C294.423 141.155 291.426 138.277 287.729 138.277C284.032 138.277 281.035 141.155 281.035 144.706C281.035 148.256 284.032 151.134 287.729 151.134Z" fill="#FFB6B6"/>
<path d="M295.276 154.773C293.713 156.913 292.914 159.558 293.041 162.169C291.27 161.345 290.074 159.604 289.667 157.754C289.26 155.905 289.571 153.963 290.225 152.18C290.231 152.162 290.238 152.144 290.244 152.127C291.237 149.451 290.315 146.46 287.917 144.796C286.299 143.674 284.897 142.266 283.82 140.653C283.212 139.742 282.695 138.599 283.149 137.609C283.568 136.696 284.649 136.27 285.644 135.985C287.915 135.333 290.328 134.962 292.66 135.375C294.991 135.787 297.235 137.074 298.337 139.09C299.439 141.106 299.15 143.857 297.362 145.351C297.926 145.526 298.325 146.1 298.277 146.668C298.229 147.235 297.739 147.74 297.153 147.825C297.535 147.812 297.761 148.296 297.625 148.639C297.488 148.983 297.137 149.196 296.801 149.373C296.323 149.624 295.794 149.888 295.792 150.547C295.791 150.811 295.889 151.068 296.049 151.282C296.438 151.803 297.065 152.037 297.669 152.257C296.392 152.619 295.373 153.715 295.145 154.975" fill="#2F2E41"/>
<path d="M293.318 190.935C291.847 191.984 290.091 192.105 289.396 191.206C288.701 190.307 289.33 188.728 290.802 187.679C291.384 187.253 292.063 186.966 292.784 186.843L299.074 182.475L301.146 185.353L294.725 189.354C294.394 189.981 293.912 190.523 293.318 190.935Z" fill="#FFB6B6"/>
<path d="M297.275 155.359C297.275 155.359 302.349 155.513 303.311 158.899C304.273 162.285 306.196 169.502 305.875 179.522C305.875 179.522 307.478 185.986 303.311 185.679L297.542 188.141L293.695 183.216L296.901 179.522L297.275 155.359Z" fill="#6C63FF"/>
<path d="M266.732 152.283C266.549 150.442 267.39 148.86 268.61 148.748C269.829 148.637 270.966 150.038 271.148 151.88C271.232 152.614 271.131 153.357 270.854 154.047L271.525 161.854L267.703 162.079L267.447 154.358C267.04 153.731 266.794 153.019 266.732 152.283Z" fill="#FFB6B6"/>
<path d="M287.558 155.986C287.558 155.986 281.314 152.459 280.028 152.988C278.743 153.517 272.498 162.511 272.498 162.511L271.924 160.87L267.54 161.277C267.54 161.277 264.969 172.74 270.662 171.682C276.355 170.624 285.721 160.748 285.721 160.748L287.558 155.986Z" fill="#6C63FF"/>
<path d="M257.728 157.279L266.361 155.352L266.979 157.074L271.155 155.991L273.91 155.276L276.585 150.285L274.687 145.002L269.035 144.951L267.307 145.278L262.486 146.188C262.077 146.837 262.3 147.68 262.981 148.063L263.204 148.189L256.422 149.317C256.422 149.317 254.255 153.02 257.728 157.279Z" fill="#3F3D56"/>
<path d="M267.309 145.278L271.157 155.991L273.912 155.276L276.587 150.285L274.689 145.002L269.037 144.951L267.309 145.278Z" fill="#2F2E41"/>
<path d="M265.845 145.722C266.439 145.596 266.868 145.262 266.802 144.977C266.736 144.692 266.201 144.563 265.607 144.689C265.013 144.816 264.585 145.149 264.65 145.435C264.716 145.72 265.251 145.849 265.845 145.722Z" fill="#3F3D56"/>
<path d="M209.477 320.523C209.32 320.787 209.11 321.019 208.86 321.205C208.609 321.392 208.323 321.529 208.017 321.609C207.711 321.689 207.392 321.71 207.078 321.672C206.764 321.633 206.46 321.536 206.185 321.385C205.91 321.234 205.669 321.032 205.475 320.791C205.281 320.551 205.138 320.276 205.055 319.982C204.972 319.689 204.95 319.382 204.99 319.08C205.03 318.779 205.131 318.487 205.288 318.223C205.294 318.214 205.299 318.205 205.305 318.196C205.372 318.088 205.448 317.984 205.532 317.887L203.503 303.995L203.442 303.579L203.03 300.745L202.969 300.336L203.193 300.346L207.125 300.519L208.18 300.564L208.312 303.15L209.06 317.689C209.45 318.048 209.704 318.522 209.78 319.036C209.856 319.551 209.749 320.074 209.477 320.523Z" fill="#FFB8B8"/>
<path d="M203.451 303.707L208.444 303.267C208.703 303.243 208.942 303.122 209.108 302.93C209.275 302.738 209.355 302.491 209.333 302.242L208.408 292.271C208.364 291.796 208.222 291.333 207.992 290.91C207.762 290.487 207.447 290.112 207.065 289.805C206.684 289.499 206.244 289.268 205.769 289.125C205.295 288.983 204.796 288.931 204.301 288.973C203.805 289.016 203.324 289.152 202.883 289.373C202.443 289.594 202.052 289.896 201.733 290.263C201.414 290.629 201.173 291.052 201.025 291.507C200.876 291.963 200.822 292.442 200.867 292.918C200.873 292.986 200.881 293.055 200.892 293.123L202.389 302.903C202.423 303.127 202.54 303.332 202.719 303.48C202.897 303.629 203.125 303.71 203.361 303.711C203.391 303.711 203.421 303.71 203.451 303.707Z" fill="#6C63FF"/>
<path d="M207.24 295.649C207.745 294.276 207.768 292.781 207.306 291.393C206.844 290.006 205.923 288.801 204.682 287.963C202.799 286.726 200.223 286.282 197.448 289.454C191.899 295.798 190.445 302.777 190.445 302.777L201.808 304.553C201.808 304.553 205.672 300.017 207.24 295.649Z" fill="#6C63FF"/>
<path d="M188.859 367.112H185.619L184.078 355.111H188.86L188.859 367.112Z" fill="#FFB8B8"/>
<path d="M179.375 370.002H189.557V366.225H183.309C182.266 366.225 181.265 366.623 180.527 367.331C179.789 368.04 179.375 369.001 179.375 370.002Z" fill="#2F2E41"/>
<path d="M215.493 364.4L212.417 365.376L207.031 354.447L211.571 353.006L215.493 364.4Z" fill="#FFB8B8"/>
<path d="M207.433 370.003L217.101 366.935L215.866 363.348L209.934 365.231C209.443 365.386 208.989 365.633 208.598 365.957C208.207 366.282 207.886 366.676 207.654 367.12C207.422 367.563 207.283 368.046 207.245 368.54C207.207 369.035 207.271 369.532 207.433 370.003Z" fill="#2F2E41"/>
<path d="M200.104 284.819C203.688 284.819 206.594 282.029 206.594 278.586C206.594 275.144 203.688 272.354 200.104 272.354C196.519 272.354 193.613 275.144 193.613 278.586C193.613 282.029 196.519 284.819 200.104 284.819Z" fill="#FFB8B8"/>
<path d="M194.423 363.774L197.431 344.705C197.464 344.501 197.568 344.315 197.728 344.177C197.887 344.04 198.091 343.96 198.305 343.951C198.52 343.942 198.73 344.004 198.902 344.128C199.073 344.252 199.194 344.429 199.245 344.629L203.826 362.802C203.898 363.08 204.076 363.323 204.325 363.482C204.574 363.64 204.876 363.704 205.171 363.661L217.809 361.71C217.976 361.684 218.136 361.625 218.278 361.534C218.419 361.444 218.539 361.326 218.629 361.188C218.719 361.05 218.777 360.895 218.799 360.733C218.821 360.571 218.807 360.407 218.758 360.251L202.279 308.076C202.232 307.928 202.227 307.77 202.263 307.619L202.812 305.336C202.872 305.088 202.844 304.828 202.733 304.598C202.621 304.367 202.432 304.179 202.197 304.063C199.953 302.964 194.269 300.678 189.98 303.182C189.841 303.263 189.72 303.371 189.626 303.499C189.531 303.626 189.465 303.771 189.431 303.924L176.557 362.03C176.522 362.188 176.523 362.351 176.558 362.509C176.594 362.667 176.664 362.816 176.764 362.946C176.864 363.076 176.991 363.184 177.138 363.263C177.284 363.342 177.447 363.391 177.614 363.405L193.141 364.74C193.176 364.743 193.211 364.745 193.247 364.745C193.531 364.744 193.806 364.646 194.021 364.468C194.237 364.29 194.379 364.044 194.422 363.774L194.423 363.774Z" fill="#2F2E41"/>
<path d="M204.408 274.181C203.919 273.898 203.485 273.536 203.126 273.11C202.948 272.895 202.831 272.639 202.786 272.368C202.741 272.097 202.77 271.82 202.869 271.562C203.197 270.867 204.171 270.649 204.927 270.884C205.682 271.12 206.265 271.689 206.817 272.238C207.303 272.72 207.803 273.225 208.032 273.859C208.262 274.494 208.144 275.298 207.571 275.683C207.008 276.06 206.199 275.906 205.658 275.5C205.117 275.095 204.782 274.493 204.462 273.909L204.408 274.181Z" fill="#2F2E41"/>
<path d="M206.605 272.406C206.641 270.65 208.726 269.39 210.526 269.702C212.327 270.013 213.71 271.487 214.403 273.113C215.866 276.547 214.768 280.467 213.358 283.923C211.948 287.38 210.202 290.886 210.408 294.592C210.548 296.595 211.248 298.525 212.434 300.178C213.621 301.831 215.251 303.145 217.151 303.982C215.119 304.866 212.691 303.953 210.983 302.574C207.192 299.512 205.728 294.061 207.506 289.621C208.382 287.43 209.927 285.556 211.133 283.516C212.339 281.475 213.224 279.07 212.601 276.801C211.978 274.532 209.328 272.696 207.063 273.573L206.605 272.406Z" fill="#2F2E41"/>
<path d="M199.718 281.354C200.284 280.435 200.854 279.23 199.82 278.427C199.596 278.261 199.338 278.139 199.064 278.069C198.789 278 198.503 277.983 198.222 278.021C197.056 278.156 195.786 278.212 194.658 277.805C194.234 277.665 193.845 277.445 193.512 277.158C193.179 276.87 192.909 276.522 192.719 276.133C192.138 274.807 192.866 273.196 194.084 272.358C194.829 271.864 195.71 271.592 196.615 271.577C197.52 271.561 198.41 271.803 199.173 272.271C200.751 271.602 202.665 271.9 204.098 272.821C205.531 273.742 206.512 275.217 207.045 276.793C207.535 278.148 207.62 279.609 207.289 281.009C207.022 281.983 206.515 282.88 205.81 283.626C205.106 284.372 204.225 284.943 203.241 285.292C202.858 285.437 202.442 285.483 202.035 285.425C201.628 285.368 201.243 285.208 200.921 284.962C200.921 284.962 200.026 284.213 199.746 283.309C199.531 282.615 199.416 281.844 199.718 281.354Z" fill="#2F2E41"/>
<path d="M180.462 286.912C180.495 287.049 180.516 287.188 180.525 287.328L191.877 293.617L194.636 292.092L197.577 295.79L192.966 298.946C192.593 299.201 192.145 299.333 191.687 299.323C191.23 299.312 190.788 299.159 190.429 298.887L178.723 290.019C178.194 290.207 177.619 290.236 177.073 290.102C176.527 289.968 176.036 289.678 175.666 289.27C175.296 288.861 175.064 288.355 175.002 287.817C174.939 287.279 175.048 286.736 175.315 286.259C175.581 285.782 175.993 285.395 176.495 285.148C176.996 284.902 177.564 284.808 178.123 284.878C178.681 284.949 179.204 285.182 179.622 285.545C180.039 285.909 180.332 286.385 180.461 286.912H180.462Z" fill="#FFB8B8"/>
<path d="M192.256 293.916L195.925 298.483C196.03 298.612 196.162 298.719 196.313 298.795C196.464 298.872 196.631 298.916 196.801 298.925C196.972 298.934 197.142 298.907 197.301 298.847C197.46 298.788 197.604 298.695 197.722 298.577L201.875 294.436C202.578 293.933 203.044 293.184 203.171 292.351C203.299 291.519 203.076 290.672 202.553 289.997C202.03 289.322 201.249 288.874 200.383 288.752C199.516 288.63 198.634 288.844 197.931 289.346C197.895 289.372 197.86 289.398 197.825 289.425L192.616 292.222C192.467 292.302 192.338 292.412 192.237 292.545C192.136 292.677 192.066 292.829 192.032 292.99C191.998 293.151 192 293.317 192.039 293.477C192.077 293.636 192.151 293.786 192.256 293.916L192.256 293.916Z" fill="#6C63FF"/>
<g clip-path="url(#clip0_276_5858)">
<path d="M406.464 412.361L404.035 412.361L402.879 404.018L406.465 404.018L406.464 412.361Z" fill="#9E616A"/>
<path d="M407.084 414.457L399.25 414.457V414.369C399.25 413.649 399.571 412.959 400.143 412.449C400.715 411.94 401.491 411.654 402.299 411.654H402.3L407.084 411.654L407.084 414.457Z" fill="#2F2E41"/>
<path d="M397.742 412.361L395.312 412.361L394.156 404.018L397.742 404.018L397.742 412.361Z" fill="#9E616A"/>
<path d="M398.362 414.457L390.527 414.457V414.369C390.527 413.649 390.849 412.959 391.421 412.449C391.992 411.94 392.768 411.654 393.577 411.654H393.577L398.362 411.654L398.362 414.457Z" fill="#2F2E41"/>
<path d="M369.447 353.899C369.641 354.137 369.891 354.334 370.18 354.476C370.469 354.618 370.79 354.702 371.119 354.722C371.448 354.742 371.779 354.698 372.087 354.592C372.395 354.486 372.673 354.322 372.902 354.11L377.709 355.781L379.563 353.428L372.736 351.152C372.311 350.834 371.769 350.665 371.213 350.678C370.658 350.692 370.127 350.886 369.721 351.225C369.316 351.563 369.064 352.022 369.013 352.515C368.963 353.008 369.117 353.5 369.447 353.899Z" fill="#9E616A"/>
<path d="M397.713 368.156L391.383 369.994L393.497 409.904L398.383 410.011L400.883 381.867L401.45 409.9L407.491 410.196L409.718 368.156H397.713Z" fill="#2F2E41"/>
<path d="M393.442 344.631L409.688 341.488L411.494 353.942L409.99 359.893L410.592 368.936C410.592 368.936 397.747 374.628 391.383 369.995C391.383 369.995 396.498 358.034 393.533 352.435L393.442 344.631Z" fill="#E4E4E4"/>
<path d="M396.254 346.393L393.44 344.631C393.44 344.631 393.274 344.426 390.93 346.867C388.585 349.307 383.829 353.188 383.829 353.188L375.901 350.542L374.457 355.292L383.67 359.115L396.714 351.359L396.254 346.393Z" fill="#E4E4E4"/>
<path d="M410.594 373.604C410.892 373.479 411.156 373.296 411.367 373.07C411.578 372.844 411.731 372.579 411.814 372.295C411.898 372.011 411.91 371.713 411.851 371.424C411.791 371.135 411.661 370.861 411.47 370.621L414.21 366.728L411.959 364.668L408.176 370.215C407.745 370.528 407.458 370.97 407.369 371.459C407.28 371.948 407.396 372.448 407.694 372.866C407.992 373.284 408.452 373.59 408.986 373.726C409.521 373.862 410.093 373.819 410.594 373.604Z" fill="#9E616A"/>
<path d="M407.152 343.941L409.686 341.488C409.686 341.488 412.51 340.613 414.816 345.136C417.123 349.659 419.699 358.834 419.699 358.834L413.676 369.164L408.998 367.303L413.676 358.761L408.725 352.435L407.152 343.941Z" fill="#E4E4E4"/>
<path d="M402.858 340.466C405.414 339.222 406.353 336.369 404.956 334.094C403.559 331.819 400.355 330.983 397.799 332.227C395.244 333.47 394.304 336.323 395.701 338.598C397.098 340.873 400.302 341.709 402.858 340.466Z" fill="#9E616A"/>
<path d="M404.774 332.149C404.524 331.217 403.651 330.481 402.647 330.136C401.643 329.791 400.524 329.794 399.463 329.955C397.701 330.221 396.056 330.897 394.436 331.567L395.685 332.099L393.961 332.187L395.293 332.8C394.937 333.041 394.667 333.368 394.513 333.742C394.36 334.116 394.33 334.521 394.428 334.909C394.496 335.164 394.68 335.444 394.973 335.453C395.328 335.463 395.513 335.095 395.761 334.869C396.092 334.569 396.613 334.502 397.081 334.559C397.549 334.615 397.993 334.776 398.455 334.864C399.038 334.973 399.641 334.967 400.222 334.847C400.803 334.727 401.348 334.496 401.818 334.171L403.48 337.732C403.464 337.597 403.483 337.462 403.536 337.335C403.589 337.209 403.674 337.095 403.785 337.002C403.896 336.91 404.029 336.842 404.174 336.803C404.319 336.763 404.472 336.755 404.622 336.777C404.772 336.8 404.913 336.853 405.036 336.932C405.159 337.011 405.259 337.115 405.33 337.234C405.4 337.354 405.439 337.486 405.442 337.621C405.446 337.756 405.414 337.89 405.35 338.012C406.069 337.047 406.647 335.95 406.667 334.791C406.687 333.633 406.042 332.412 404.86 331.926" fill="#2F2E41"/>
<path d="M431.279 404.414L429.065 407.512L430.354 403.479C427.632 400.95 423.863 399.1 423.863 399.1C423.863 399.1 419.222 405.89 420.471 410.067C421.72 414.244 424.946 415.041 428.386 414.226C431.827 413.41 434.18 411.291 432.931 407.114C432.653 406.184 432.049 405.271 431.279 404.414Z" fill="#F5F5F5"/>
<path d="M428.352 407.821L428.413 408.027C429.115 410.423 429.22 412.398 428.724 413.924C428.717 413.946 428.709 413.968 428.702 413.99L428.586 413.96L428.475 413.929C429.038 412.275 428.787 410.186 428.175 408.095C428.156 408.028 428.137 407.959 428.115 407.891C427.847 407.008 427.52 406.129 427.163 405.284C427.136 405.218 427.107 405.152 427.079 405.085C426.601 403.972 426.079 402.923 425.595 402.019C425.562 401.955 425.527 401.892 425.492 401.829C424.666 400.302 423.966 399.22 423.809 398.982C423.791 398.952 423.78 398.936 423.777 398.932L423.878 398.879L423.879 398.878L423.98 398.824C423.983 398.828 424.02 398.882 424.084 398.982C424.327 399.357 424.973 400.377 425.718 401.748C425.751 401.81 425.786 401.874 425.82 401.938C426.213 402.671 426.63 403.495 427.027 404.371C427.127 404.59 427.222 404.808 427.314 405.023C427.343 405.089 427.372 405.155 427.399 405.221C427.785 406.135 428.102 407.001 428.352 407.821Z" fill="white"/>
<path d="M425.717 401.749C425.643 401.776 425.568 401.804 425.491 401.83C425.282 401.9 425.069 401.961 424.854 402.013C423.935 402.231 422.973 402.264 422.038 402.108C422.006 402.173 421.974 402.239 421.941 402.306C422.927 402.478 423.944 402.447 424.915 402.216C425.145 402.162 425.372 402.096 425.594 402.02C425.67 401.995 425.745 401.967 425.819 401.939C426.428 401.708 426.994 401.396 427.498 401.014C427.432 400.969 427.367 400.926 427.304 400.883C426.826 401.24 426.291 401.531 425.717 401.749Z" fill="white"/>
<path d="M427.313 405.024C427.235 405.046 427.157 405.067 427.078 405.086C427.054 405.093 427.029 405.099 427.005 405.104C426.009 405.34 424.964 405.359 423.958 405.157C422.953 404.956 422.017 404.541 421.23 403.948C421.203 404.019 421.175 404.09 421.148 404.162C421.962 404.758 422.922 405.173 423.952 405.372C424.981 405.571 426.048 405.549 427.066 405.308C427.098 405.301 427.13 405.293 427.162 405.284C427.242 405.264 427.32 405.244 427.398 405.222C428.604 404.876 429.672 404.229 430.476 403.357C430.421 403.306 430.366 403.254 430.311 403.203C429.532 404.057 428.49 404.689 427.313 405.024Z" fill="white"/>
<path d="M428.351 407.822C428.272 407.847 428.194 407.87 428.114 407.892C428.029 407.916 427.944 407.938 427.858 407.958C426.52 408.274 425.102 408.195 423.818 407.734C422.534 407.273 421.452 406.453 420.735 405.399C420.708 405.493 420.681 405.587 420.656 405.681C421.42 406.722 422.533 407.522 423.837 407.967C425.141 408.413 426.569 408.481 427.919 408.162C428.005 408.142 428.091 408.12 428.174 408.096C428.255 408.075 428.334 408.052 428.412 408.028C429.997 407.531 431.311 406.517 432.088 405.191C432.041 405.121 431.992 405.053 431.942 404.984C431.205 406.31 429.917 407.328 428.351 407.822Z" fill="white"/>
<path d="M385.465 327.437C385.465 320.026 379.662 314.018 372.502 314.018C365.343 314.018 359.539 320.026 359.539 327.437C359.539 334.159 364.313 339.726 370.543 340.704V341.969C370.543 342.208 370.649 342.437 370.839 342.606C371.029 342.775 371.286 342.869 371.554 342.869H373.45C373.718 342.869 373.976 342.775 374.165 342.606C374.355 342.437 374.462 342.208 374.462 341.969V340.704C380.691 339.726 385.465 334.159 385.465 327.437Z" fill="#F9AB00"/>
<path d="M370.23 341.786C370.635 341.447 371.118 341.19 371.646 341.033C372.174 340.875 372.733 340.822 373.287 340.875C373.844 340.933 374.379 341.105 374.849 341.378C375.319 341.651 375.712 342.017 375.995 342.448C376.279 342.866 376.458 343.334 376.518 343.82C376.579 344.306 376.52 344.797 376.345 345.261C376.005 346.185 375.28 346.954 374.538 347.647C373.759 348.374 372.912 349.045 372.179 349.811C370.972 351.082 370.128 352.595 369.722 354.221C369.315 355.846 369.358 357.534 369.845 359.142C370.488 361.179 371.814 362.993 373.647 364.34C373.88 364.509 374.12 364.67 374.367 364.824C374.652 365.001 374.922 364.585 374.639 364.408C372.649 363.155 371.178 361.353 370.454 359.28C369.905 357.665 369.835 355.951 370.25 354.305C370.666 352.659 371.552 351.136 372.824 349.885C373.597 349.126 374.462 348.446 375.234 347.687C375.974 346.959 376.648 346.138 376.937 345.177C377.084 344.688 377.12 344.178 377.044 343.677C376.968 343.176 376.782 342.693 376.495 342.256C376.21 341.809 375.825 341.42 375.363 341.112C374.901 340.804 374.372 340.585 373.811 340.467C372.681 340.249 371.499 340.431 370.518 340.975C370.277 341.111 370.053 341.269 369.848 341.446C369.597 341.661 369.979 342.001 370.23 341.786Z" fill="#3F3D56"/>
<path d="M335.512 321.818C331.546 313.7 321.973 309.581 314.132 312.618C306.29 315.655 303.148 324.698 307.115 332.815C310.712 340.178 318.921 344.251 326.267 342.679L326.944 344.064C327.072 344.326 327.311 344.532 327.61 344.636C327.908 344.741 328.241 344.736 328.534 344.622L330.611 343.818C330.904 343.704 331.136 343.491 331.253 343.225C331.37 342.96 331.365 342.664 331.237 342.402L330.56 341.017C336.86 337.303 339.109 329.18 335.512 321.818Z" fill="#EA4335"/>
<path d="M326.464 343.955C326.722 343.426 327.101 342.951 327.578 342.562C328.055 342.172 328.619 341.876 329.232 341.693C329.835 341.512 330.474 341.451 331.106 341.513C331.738 341.576 332.347 341.761 332.89 342.055C333.45 342.35 333.932 342.748 334.306 343.222C334.679 343.696 334.934 344.236 335.055 344.805C335.332 346.124 334.882 347.468 334.372 348.696C333.837 349.983 333.17 351.233 332.798 352.57C332.28 354.449 332.27 356.41 332.768 358.293C333.265 360.176 334.257 361.927 335.661 363.403C337.43 365.228 339.76 366.553 342.364 367.214C342.683 367.294 343.006 367.362 343.331 367.421C343.67 367.482 343.815 367.019 343.474 366.957C340.765 366.461 338.297 365.227 336.41 363.427C334.409 361.502 333.201 359.03 332.981 356.414C332.864 355.089 333 353.756 333.385 352.471C333.795 351.116 334.49 349.847 335.014 348.526C335.513 347.266 335.868 345.913 335.554 344.579C335.265 343.405 334.465 342.381 333.328 341.732C332.784 341.412 332.173 341.192 331.533 341.084C330.892 340.976 330.233 340.983 329.595 341.104C328.292 341.366 327.151 342.061 326.403 343.047C326.221 343.292 326.067 343.554 325.943 343.827C325.811 344.112 326.333 344.237 326.464 343.955Z" fill="#3F3D56"/>
<path d="M446.309 419.869L449.221 419.869L450.606 409.871L446.309 409.871L446.309 419.869Z" fill="#FFB6B6"/>
<path d="M445.566 419.022L451.3 419.021H451.3C452.269 419.022 453.199 419.364 453.884 419.974C454.569 420.584 454.954 421.412 454.954 422.274V422.38L445.567 422.38L445.566 419.022Z" fill="#2F2E41"/>
<path d="M429.078 417.665L431.854 418.447L436.562 409.287L432.465 408.133L429.078 417.665Z" fill="#FFB6B6"/>
<path d="M428.657 416.658L434.124 418.198L434.124 418.198C435.048 418.458 435.818 419.034 436.265 419.8C436.711 420.566 436.798 421.458 436.506 422.28L436.47 422.381L427.52 419.861L428.657 416.658Z" fill="#2F2E41"/>
<path d="M435.634 374.209L434.018 378.266L433.972 400.166L429.391 415.16L435.015 416.558L441.228 402.419L443.22 390.001L445.846 402.492L445.485 417.338H451.386L451.831 394.46C451.956 388.035 450.693 381.648 448.111 375.647L435.634 374.209Z" fill="#2F2E41"/>
<path d="M433.71 357.775H443.248L447.233 361.324L448.424 375.99L434.018 378.054L429.391 364.06L431.911 358.113L433.71 357.775Z" fill="#E4E4E4"/>
<path d="M430.279 364.201L415.593 359.282L415.211 357.248L424.472 350.271L427.555 352.33L421.968 357.776L431.91 358.114L430.279 364.201Z" fill="#E4E4E4"/>
<path d="M426.254 353.125C427.565 353.125 428.628 352.178 428.628 351.011C428.628 349.843 427.565 348.896 426.254 348.896C424.942 348.896 423.879 349.843 423.879 351.011C423.879 352.178 424.942 353.125 426.254 353.125Z" fill="#FFB6B6"/>
<path d="M431.759 353.675L432.832 349.367C433.02 348.608 433.375 347.89 433.875 347.253C434.375 346.616 435.011 346.074 435.747 345.656C436.483 345.238 437.304 344.954 438.163 344.819C439.023 344.683 439.904 344.701 440.756 344.869C441.608 345.037 442.414 345.353 443.129 345.799C443.844 346.245 444.453 346.812 444.921 347.467C445.39 348.123 445.708 348.854 445.859 349.619C446.01 350.384 445.99 351.169 445.8 351.927L444.727 356.235C444.676 356.441 444.535 356.619 444.335 356.733C444.136 356.846 443.894 356.884 443.663 356.838L432.437 354.622C432.206 354.576 432.005 354.451 431.878 354.273C431.751 354.096 431.708 353.88 431.759 353.675Z" fill="#2F2E41"/>
<path d="M439.153 355.297C441.736 354.631 443.223 352.226 442.475 349.927C441.726 347.627 439.026 346.303 436.443 346.969C433.86 347.636 432.372 350.04 433.121 352.34C433.869 354.639 436.57 355.963 439.153 355.297Z" fill="#FFB6B6"/>
<path d="M431.213 349.408C431.516 348.197 432.346 347.144 433.521 346.477C434.696 345.811 436.119 345.587 437.48 345.854L438.447 346.045C439.807 346.315 440.991 347.054 441.739 348.1C442.487 349.146 442.739 350.413 442.439 351.624L442.418 351.71L440.372 351.307L440.108 349.43L439.535 351.141L438.478 350.933L438.345 349.986L438.056 350.849L431.191 349.494L431.213 349.408Z" fill="#2F2E41"/>
<path d="M436.13 355.859C436.063 355.725 436.04 355.576 436.064 355.43C436.087 355.284 436.157 355.147 436.264 355.035C437.722 353.501 439.958 350.575 438.545 348.22L438.443 348.051L443.976 349.143L442.134 356.539L436.911 356.336C436.858 356.334 436.805 356.328 436.754 356.318C436.616 356.291 436.488 356.235 436.38 356.155C436.272 356.076 436.186 355.974 436.13 355.859Z" fill="#2F2E41"/>
<path d="M442.867 357.865L458.401 359.832L459.27 361.743L451.929 370.342L448.418 368.928L452.545 362.532L442.758 364.123L442.867 357.865Z" fill="#E4E4E4"/>
<path d="M466.124 329.986C466.124 321.133 459.191 313.957 450.64 313.957C442.089 313.957 435.156 321.133 435.156 329.986C435.156 338.015 440.859 344.665 448.299 345.833V347.343C448.299 347.628 448.427 347.902 448.653 348.104C448.88 348.306 449.187 348.419 449.508 348.419H451.772C452.093 348.419 452.4 348.306 452.627 348.104C452.853 347.902 452.981 347.628 452.981 347.343V345.833C460.421 344.665 466.124 338.015 466.124 329.986Z" fill="#34A853"/>
<path d="M447.891 347.091C448.382 346.68 448.968 346.369 449.609 346.179C450.249 345.989 450.927 345.925 451.598 345.992C452.257 346.061 452.889 346.263 453.447 346.582C454.005 346.901 454.475 347.328 454.82 347.833C455.171 348.33 455.397 348.89 455.481 349.473C455.566 350.056 455.509 350.648 455.312 351.209C454.93 352.31 454.091 353.232 453.217 354.059C452.285 354.94 451.264 355.746 450.372 356.663C448.919 358.166 447.898 359.961 447.396 361.894C446.895 363.827 446.928 365.839 447.493 367.757C448.249 370.223 449.846 372.42 452.064 374.043C452.334 374.238 452.611 374.424 452.896 374.601C453.181 374.779 453.451 374.362 453.168 374.186C450.793 372.692 449.034 370.545 448.16 368.075C447.497 366.147 447.403 364.099 447.887 362.129C448.372 360.159 449.418 358.334 450.926 356.829C451.842 355.918 452.874 355.107 453.801 354.205C454.689 353.341 455.503 352.372 455.868 351.231C456.052 350.654 456.105 350.051 456.025 349.456C455.945 348.861 455.733 348.286 455.402 347.765C455.072 347.231 454.623 346.764 454.081 346.393C453.539 346.022 452.916 345.754 452.253 345.607C450.904 345.331 449.488 345.54 448.311 346.189C448.023 346.351 447.754 346.54 447.509 346.751C447.258 346.967 447.641 347.307 447.891 347.091Z" fill="#3F3D56"/>
<path d="M449.765 372.787C451.077 372.787 452.14 371.84 452.14 370.673C452.14 369.505 451.077 368.559 449.765 368.559C448.454 368.559 447.391 369.505 447.391 370.673C447.391 371.84 448.454 372.787 449.765 372.787Z" fill="#FFB6B6"/>
<path d="M425.016 351.604C424.891 351.779 424.589 351.754 424.42 351.644C424.185 351.492 424.261 351.199 424.423 351.026C424.938 350.475 425.79 351.056 425.905 351.603C425.947 351.87 425.901 352.141 425.772 352.385C425.643 352.628 425.436 352.833 425.178 352.972C424.59 353.282 423.827 353.127 423.322 352.756C422.268 351.982 422.555 350.432 423.725 349.872C424.472 349.515 425.417 349.672 426.153 349.971C426.981 350.308 427.694 350.825 428.46 351.255C430.141 352.192 432.042 352.77 434.016 352.944C434.361 352.976 434.359 352.494 434.016 352.463C432.922 352.363 431.848 352.132 430.823 351.779C429.809 351.413 428.846 350.942 427.955 350.377C427.053 349.827 426.11 349.292 424.994 349.201C424.543 349.154 424.087 349.214 423.671 349.375C423.255 349.537 422.895 349.793 422.626 350.118C422.387 350.409 422.227 350.746 422.159 351.101C422.09 351.457 422.115 351.821 422.232 352.167C422.372 352.528 422.617 352.849 422.943 353.099C423.268 353.348 423.661 353.516 424.083 353.586C424.49 353.654 424.91 353.608 425.285 353.454C425.66 353.299 425.972 353.045 426.177 352.725C426.588 352.092 426.575 351.242 425.954 350.718C425.776 350.557 425.553 350.441 425.309 350.382C425.064 350.322 424.806 350.322 424.561 350.381C424.335 350.448 424.137 350.573 423.989 350.74C423.842 350.907 423.753 351.108 423.732 351.32C423.672 352.141 424.982 352.552 425.482 351.847C425.668 351.584 425.201 351.343 425.016 351.604Z" fill="#3F3D56"/>
<path d="M316.955 377.446L316.242 378.243L313.719 376.914L314.432 376.117L316.955 377.446Z" fill="#E4E4E4"/>
<path d="M319.588 380.871L320.218 381.708L317.568 382.882L316.938 382.045L319.588 380.871Z" fill="#E4E4E4"/>
<path d="M322.332 377.23L323.592 377.27L323.466 379.616L322.207 379.576L322.332 377.23Z" fill="#E4E4E4"/>
<path d="M346.662 313.972L345.949 314.768L343.426 313.44L344.139 312.643L346.662 313.972Z" fill="#E4E4E4"/>
<path d="M349.295 317.396L349.925 318.234L347.275 319.407L346.645 318.57L349.295 317.396Z" fill="#E4E4E4"/>
<path d="M352.039 313.756L353.299 313.795L353.173 316.141L351.914 316.102L352.039 313.756Z" fill="#E4E4E4"/>
<path d="M416.701 322.307L415.988 323.104L413.465 321.775L414.178 320.979L416.701 322.307Z" fill="#E4E4E4"/>
<path d="M419.334 325.73L419.964 326.568L417.314 327.741L416.684 326.904L419.334 325.73Z" fill="#E4E4E4"/>
<path d="M422.078 322.092L423.338 322.131L423.212 324.477L421.953 324.437L422.078 322.092Z" fill="#E4E4E4"/>
<path d="M395.276 310.606L394.562 311.403L392.039 310.074L392.752 309.277L395.276 310.606Z" fill="#E4E4E4"/>
<path d="M397.908 314.029L398.539 314.866L395.888 316.04L395.258 315.203L397.908 314.029Z" fill="#E4E4E4"/>
<path d="M400.653 310.391L401.912 310.43L401.787 312.776L400.527 312.736L400.653 310.391Z" fill="#E4E4E4"/>
<path d="M417.057 370.507L416.344 371.432L418.867 372.974L419.58 372.049L417.057 370.507Z" fill="#E4E4E4"/>
<path d="M419.565 377.386L420.195 378.357L422.846 376.995L422.216 376.023L419.565 377.386Z" fill="#E4E4E4"/>
<path d="M424.831 374.522L426.09 374.568L426.215 371.846L424.956 371.8L424.831 374.522Z" fill="#E4E4E4"/>
<path d="M363.535 412.482L365.716 412.182L364.221 396.666L359.359 397.467L363.535 412.482Z" fill="#FFB6B6"/>
<path d="M362.867 411.925L367.163 411.334C367.889 411.234 368.63 411.395 369.223 411.781C369.816 412.168 370.212 412.748 370.324 413.394L370.338 413.473L363.304 414.442L362.867 411.925Z" fill="#2F2E41"/>
<path d="M340.609 412.29L342.815 412.374L345.497 398.59L340.636 398.59L340.609 412.29Z" fill="#FFB6B6"/>
<path d="M340.075 411.627L344.418 411.792H344.418C345.152 411.82 345.844 412.106 346.341 412.588C346.837 413.069 347.099 413.707 347.068 414.361L347.064 414.441L339.953 414.171L340.075 411.627Z" fill="#2F2E41"/>
<path d="M344.95 367.379C344.846 367.353 344.74 367.336 344.632 367.327L346.007 357.309L350.671 348.514C350.965 347.961 351.012 347.329 350.803 346.746C350.594 346.163 350.144 345.673 349.545 345.373C348.945 345.074 348.241 344.988 347.573 345.133C346.905 345.278 346.324 345.643 345.947 346.155C344.724 347.812 343.8 349.629 343.206 351.54L341.246 357.848L342.679 368.666C342.624 368.971 342.669 369.284 342.809 369.567C342.949 369.849 343.178 370.09 343.468 370.259C343.758 370.429 344.096 370.52 344.443 370.523C344.79 370.525 345.13 370.438 345.423 370.272C345.716 370.106 345.948 369.869 346.093 369.588C346.237 369.307 346.287 368.995 346.237 368.69C346.188 368.384 346.039 368.098 345.811 367.865C345.583 367.633 345.284 367.464 344.95 367.379Z" fill="#FFB6B6"/>
<path d="M347.78 358.157L341.887 352.155L344.806 346.041C345.189 345.241 345.907 344.605 346.809 344.27C347.71 343.934 348.724 343.926 349.632 344.246C350.541 344.566 351.272 345.19 351.672 345.984C352.071 346.778 352.105 347.68 351.768 348.496L347.78 358.157Z" fill="#2F2E41"/>
<path d="M357.578 339.023C358.996 336.714 358.042 333.818 355.448 332.556C352.855 331.294 349.602 332.142 348.185 334.452C346.767 336.761 347.72 339.656 350.314 340.918C352.908 342.181 356.16 341.332 357.578 339.023Z" fill="#FFB6B6"/>
<path d="M353.777 330.947H350.319C348.052 330.947 346.215 332.788 346.215 335.058L346.375 340.565C348.824 340.836 351.22 341.406 353.494 342.26L353.817 341.033L354.453 342.649C355.019 342.893 355.581 343.16 356.137 343.45C355.488 340.733 355.22 338.022 355.666 335.916H356.837V334.775L357.235 335.916H359.358C359.358 335.264 359.214 334.618 358.933 334.015C358.653 333.412 358.242 332.864 357.723 332.403C357.205 331.941 356.59 331.575 355.913 331.325C355.235 331.076 354.51 330.947 353.777 330.947Z" fill="#2F2E41"/>
<path d="M365.052 397.509L364.552 397.617L364.131 390.655L361.07 369.818L357.56 361.884L359.27 356.354C359.27 356.354 361.25 352.507 356.299 349.542L352.338 343.611C349.602 342.018 347.351 343.06 346.151 345.767C345.105 348.126 344.294 351.11 344.777 354.19C345.858 361.09 346.757 361.884 346.757 361.884C346.757 361.884 340.005 368.536 341.446 377.031L340.643 399.026L339.909 399L339.828 400.747L346.244 400.981L346.325 399.234L345.792 399.214L348.107 390.495L351.528 378.954L357.47 393.06L359.468 398.707L358.81 398.848L359.269 400.548L365.512 399.209L365.052 397.509Z" fill="#2F2E41"/>
<path d="M369.462 358.011C369.389 358.082 369.324 358.159 369.267 358.241L359.814 352.669L353.06 345.025C352.635 344.544 352.022 344.224 351.342 344.13C350.663 344.036 349.969 344.175 349.401 344.519C348.832 344.863 348.431 345.385 348.279 345.982C348.126 346.579 348.233 347.204 348.579 347.733C349.698 349.448 351.11 350.996 352.765 352.323L358.229 356.702L369.74 360.395C370.022 360.575 370.357 360.678 370.703 360.693C371.05 360.708 371.393 360.633 371.693 360.478C371.993 360.323 372.237 360.094 372.394 359.819C372.551 359.544 372.616 359.234 372.58 358.927C372.544 358.619 372.409 358.328 372.192 358.088C371.974 357.847 371.683 357.668 371.354 357.571C371.024 357.474 370.67 357.464 370.335 357.542C369.999 357.62 369.696 357.783 369.462 358.011Z" fill="#FFB6B6"/>
<path d="M361.457 351.635L352.792 353.647L347.953 348.59C347.319 347.928 347.001 347.072 347.067 346.204C347.133 345.336 347.577 344.525 348.305 343.945C349.033 343.364 349.986 343.06 350.963 343.097C351.939 343.134 352.86 343.509 353.53 344.142L361.457 351.635Z" fill="#2F2E41"/>
<path d="M428.619 414.604H312.078C312.021 414.604 311.966 414.584 311.926 414.548C311.886 414.513 311.863 414.464 311.863 414.414C311.863 414.363 311.886 414.314 311.926 414.279C311.966 414.243 312.021 414.223 312.078 414.223H428.619C428.676 414.223 428.73 414.243 428.77 414.279C428.81 414.314 428.833 414.363 428.833 414.414C428.833 414.464 428.81 414.513 428.77 414.548C428.73 414.584 428.676 414.604 428.619 414.604Z" fill="#CACACA"/>
</g>
<defs>
<filter id="filter0_dddd_276_5858" x="-28.4492" y="85.209" width="1112.08" height="575.41" filterUnits="userSpaceOnUse" color-interpolation-filters="sRGB">
<feFlood flood-opacity="0" result="BackgroundImageFix"/>
<feColorMatrix in="SourceAlpha" type="matrix" values="0 0 0 0 0 0 0 0 0 0 0 0 0 0 0 0 0 0 127 0" result="hardAlpha"/>
<feOffset dx="22" dy="3"/>
<feGaussianBlur stdDeviation="24.5"/>
<feColorMatrix type="matrix" values="0 0 0 0 0 0 0 0 0 0 0 0 0 0 0 0 0 0 0.1 0"/>
<feBlend mode="normal" in2="BackgroundImageFix" result="effect1_dropShadow_276_5858"/>
<feColorMatrix in="SourceAlpha" type="matrix" values="0 0 0 0 0 0 0 0 0 0 0 0 0 0 0 0 0 0 127 0" result="hardAlpha"/>
<feOffset dx="88" dy="11"/>
<feGaussianBlur stdDeviation="44"/>
<feColorMatrix type="matrix" values="0 0 0 0 0 0 0 0 0 0 0 0 0 0 0 0 0 0 0.09 0"/>
<feBlend mode="normal" in2="effect1_dropShadow_276_5858" result="effect2_dropShadow_276_5858"/>
<feColorMatrix in="SourceAlpha" type="matrix" values="0 0 0 0 0 0 0 0 0 0 0 0 0 0 0 0 0 0 127 0" result="hardAlpha"/>
<feOffset dx="198" dy="25"/>
<feGaussianBlur stdDeviation="59.5"/>
<feColorMatrix type="matrix" values="0 0 0 0 0 0 0 0 0 0 0 0 0 0 0 0 0 0 0.05 0"/>
<feBlend mode="normal" in2="effect2_dropShadow_276_5858" result="effect3_dropShadow_276_5858"/>
<feColorMatrix in="SourceAlpha" type="matrix" values="0 0 0 0 0 0 0 0 0 0 0 0 0 0 0 0 0 0 127 0" result="hardAlpha"/>
<feOffset dx="351" dy="44"/>
<feGaussianBlur stdDeviation="71"/>
<feColorMatrix type="matrix" values="0 0 0 0 0 0 0 0 0 0 0 0 0 0 0 0 0 0 0.01 0"/>
<feBlend mode="normal" in2="effect3_dropShadow_276_5858" result="effect4_dropShadow_276_5858"/>
<feBlend mode="normal" in="SourceGraphic" in2="effect4_dropShadow_276_5858" result="shape"/>
</filter>
<clipPath id="clip0_276_5858">
<rect width="160.726" height="113.104" fill="white" transform="translate(305.398 309.277)"/>
</clipPath>
</defs>
</svg>
